<svg version="1.2" xmlns="http://www.w3.org/2000/svg" viewBox="0 0 890 890" width="890" height="890">
	<title>OC1KI91</title>
	<style>
		.s0 { fill: #FFFFFF } 
		.s1 { fill: #FFFFFF } 
	</style>
	<g id="Layer 1">
		<g id="&lt;Group&gt;">
			<g id="&lt;Group&gt;">
				<path id="&lt;Compound Path&gt;" fill-rule="evenodd" class="s0" d="m566.9 445.9q0 0 0 2.2c-0.1 1.4 0 3.6-0.3 6.3-0.3 5.6-1.2 13.8-4 23.8q-0.5 1.9-1.1 3.9-0.6 1.9-1.3 4c-0.4 1.3-1 2.7-1.5 4.1-0.6 1.4-1.1 2.8-1.8 4.3-2.4 5.7-5.6 11.8-9.5 17.9-7.8 12.2-19 24.6-33.8 34.9-7.4 5-15.6 9.5-24.7 13.1-9 3.6-18.8 6.1-29.1 7.5-1.3 0.2-2.6 0.3-3.9 0.4q-1.9 0.2-3.9 0.3-1.9 0.1-3.9 0.2l-2 0.1h-0.3-0.2-0.5-1q-2-0.1-4-0.1c-1.3 0-2.6-0.1-4-0.2-2.7-0.1-5.4-0.5-8.1-0.8-5.4-0.7-10.9-1.7-16.3-3.2-2.7-0.7-5.3-1.6-8-2.5-1.3-0.4-2.7-1-4-1.5l-2-0.7-1.9-0.9c-10.5-4.4-20.6-10.4-29.7-17.9q-1.7-1.4-3.4-2.8c-1.1-1-2.1-2-3.2-3l-1.7-1.5-1.5-1.6c-1-1.1-2.1-2.2-3.1-3.3-4-4.4-7.7-9.1-11.1-14.1-13.6-19.9-21.1-44.4-21.1-68.9 0.1-24.5 7.5-49 21.1-68.9 3.4-4.9 7.1-9.7 11.1-14.1 1-1.1 2.1-2.1 3.1-3.2l1.6-1.6 1.6-1.5c1.1-1 2.1-2.1 3.2-3q1.7-1.5 3.4-2.9c9.2-7.4 19.2-13.5 29.7-17.9l1.9-0.8 2-0.8c1.4-0.5 2.7-1 4-1.5 2.7-0.8 5.3-1.8 8.1-2.4 5.3-1.6 10.8-2.5 16.2-3.3 2.7-0.3 5.4-0.7 8.1-0.8 1.3 0 2.7-0.1 4-0.2q2 0 4 0c0.7 0 1.3 0 2.1 0l1.9 0.1q1.9 0 3.9 0.1 2 0.2 3.9 0.4c1.3 0.1 2.6 0.2 3.9 0.4 10.3 1.3 20.1 3.8 29.1 7.4 9.1 3.6 17.3 8.1 24.7 13.2 14.8 10.3 26 22.7 33.8 34.9 3.9 6.1 7.1 12.1 9.5 17.9 0.7 1.4 1.2 2.8 1.8 4.2 0.5 1.4 1.1 2.8 1.5 4.2q0.7 2 1.3 4 0.6 1.9 1.1 3.8c2.8 10.1 3.7 18.2 4 23.8 0.3 2.8 0.2 4.9 0.3 6.3q0 2.2 0 2.2zm-0.4 0q0 0 0 0 0 0 0 0zm-0.1-2.2c-0.1-1.4 0-3.5-0.3-6.3-0.3-5.5-1.2-13.6-4-23.6q-0.6-1.9-1.1-3.9-0.7-1.9-1.4-3.9c-0.4-1.4-1-2.7-1.5-4.1-0.6-1.4-1.1-2.9-1.8-4.3-2.4-5.7-5.6-11.7-9.6-17.7-7.9-12-19.1-24.3-33.9-34.2-7.3-4.9-15.6-9.2-24.5-12.6-9-3.4-18.7-5.6-28.7-6.8-1.3-0.2-2.6-0.3-3.8-0.4q-2-0.1-3.9-0.3-1.9 0-3.9-0.1h-1.9c-0.6 0-1.3 0-2 0q-1.9 0.1-3.9 0.1c-1.3 0.1-2.6 0.2-3.9 0.3-2.6 0.2-5.3 0.6-7.9 0.9-5.3 0.8-10.6 1.9-15.8 3.4-2.6 0.7-5.2 1.7-7.8 2.5-1.3 0.5-2.6 1-3.9 1.5l-1.9 0.8-1.9 0.9c-10.1 4.4-19.8 10.5-28.5 17.8-4.4 3.6-8.5 7.7-12.3 11.9-3.9 4.3-7.4 8.9-10.7 13.8-3.2 4.8-6 9.9-8.5 15.2-2.6 5.3-4.6 10.8-6.4 16.4-1.7 5.7-2.9 11.4-3.8 17.3-0.9 5.8-1.2 11.7-1.3 17.6 0.1 5.9 0.4 11.8 1.3 17.7 0.9 5.8 2.1 11.6 3.8 17.2 1.8 5.6 3.8 11.1 6.4 16.4 2.5 5.3 5.3 10.4 8.5 15.3 3.3 4.8 6.8 9.4 10.7 13.7 3.8 4.3 7.9 8.3 12.3 12 8.7 7.3 18.4 13.3 28.5 17.8l1.9 0.8 1.9 0.8c1.3 0.5 2.6 1 3.9 1.5 2.6 0.9 5.2 1.8 7.8 2.5 5.2 1.6 10.5 2.6 15.8 3.4 2.6 0.4 5.3 0.8 7.9 0.9 1.3 0.1 2.6 0.2 3.9 0.3q2 0 3.9 0.1c0.7 0 1.4 0 2 0h1.9q2-0.1 3.9-0.1 1.9-0.1 3.9-0.3c1.2-0.1 2.5-0.2 3.8-0.3 10-1.2 19.7-3.5 28.7-6.9 8.9-3.4 17.2-7.7 24.5-12.6 14.8-9.9 26-22.2 33.9-34.2 4-6 7.2-12 9.6-17.7 0.7-1.4 1.2-2.8 1.8-4.2 0.5-1.4 1.1-2.8 1.5-4.1q0.7-2.1 1.4-4 0.5-2 1.1-3.8c2.8-10 3.7-18.2 4-23.7 0.3-2.7 0.2-4.9 0.3-6.3q0.1-2.1 0.1-2.2 0-0.1-0.1-2.2z"/>
				<path id="&lt;Compound Path&gt;" fill-rule="evenodd" class="s0" d="m445 583q0 0-2.5-0.1c-1.6 0-4.1 0-7.2-0.3-6.4-0.4-15.7-1.4-27.1-4.5q-2.2-0.6-4.4-1.3-2.2-0.7-4.6-1.5c-1.5-0.5-3.1-1.1-4.7-1.7-1.6-0.7-3.2-1.3-4.9-2-6.5-2.8-13.4-6.4-20.4-10.9-13.9-8.9-28-21.7-39.7-38.5-5.7-8.5-10.9-17.9-14.9-28.2-4.1-10.3-6.9-21.5-8.4-33.2-0.3-1.4-0.4-2.9-0.5-4.4q-0.2-2.2-0.4-4.4-0.1-2.3-0.2-4.5l-0.1-2.3v-0.3-0.3-0.6l0.1-1.1q0-2.2 0-4.5c0-1.5 0.2-3 0.3-4.6 0.1-3.1 0.5-6.1 0.9-9.2 0.8-6.2 2-12.4 3.7-18.5 0.8-3.1 1.8-6.1 2.8-9.1 0.5-1.5 1.1-3 1.7-4.5l0.9-2.3 0.9-2.2c5.1-12 12-23.4 20.5-33.7q1.6-1.9 3.2-3.9c1.1-1.2 2.3-2.4 3.4-3.7l1.8-1.8 1.8-1.8c1.2-1.1 2.4-2.3 3.7-3.5 5-4.5 10.4-8.7 16-12.6l4.3-2.8c1.4-0.9 2.9-1.7 4.4-2.6q1.1-0.7 2.3-1.3l2.2-1.2c1.6-0.8 3.1-1.6 4.7-2.3 6.2-3 12.7-5.4 19.3-7.5 6.6-2.1 13.4-3.5 20.3-4.6l5.2-0.7c1.7-0.3 3.4-0.3 5.2-0.5 1.7-0.1 3.4-0.3 5.2-0.3l5.3-0.1 5.1 0.1c0.8 0.1 1.6 0.1 2.5 0.1l2.7 0.2 2.6 0.2q1.3 0.1 2.6 0.3l5.2 0.7c6.9 1.1 13.7 2.5 20.3 4.6 6.6 2.1 13.1 4.5 19.3 7.5 6.2 3 12.2 6.4 17.9 10.2 5.6 3.9 11 8.1 16 12.7 1.3 1.1 2.5 2.3 3.7 3.5l1.8 1.7 1.8 1.9c1.1 1.2 2.3 2.4 3.4 3.6q1.6 2 3.2 3.9c8.5 10.4 15.4 21.8 20.4 33.7l1 2.2 0.9 2.3c0.5 1.5 1.1 3 1.7 4.5 0.9 3 2 6 2.8 9.1 1.7 6.1 2.8 12.3 3.7 18.5 0.4 3.1 0.8 6.1 0.9 9.2 0.1 1.5 0.2 3.1 0.3 4.6q0 2.3 0 4.5c0 0.8 0.1 1.5 0 2.4v2.2q-0.1 2.2-0.2 4.4c-0.1 1.5-0.3 3-0.4 4.5-0.1 1.5-0.2 3-0.5 4.4-1.5 11.7-4.3 22.9-8.4 33.2-4.1 10.3-9.2 19.7-14.9 28.1-11.7 16.9-25.8 29.6-39.7 38.6-7 4.5-13.9 8.1-20.4 10.9-1.7 0.7-3.3 1.3-4.9 2-1.6 0.6-3.2 1.2-4.7 1.7q-2.4 0.8-4.6 1.5-2.2 0.7-4.4 1.3c-11.4 3.1-20.7 4.1-27.1 4.5-3.1 0.3-5.6 0.3-7.2 0.3q-2.5 0.1-2.5 0.1zm0-0.5q0 0 0 0 0 0 0 0zm2.5 0c1.6-0.1 4 0 7.2-0.4 6.3-0.4 15.6-1.4 27-4.6q2.1-0.6 4.3-1.2 2.3-0.8 4.6-1.6c1.5-0.5 3.1-1.1 4.7-1.7 1.5-0.7 3.2-1.2 4.8-2 6.5-2.8 13.3-6.5 20.2-11 13.7-9 27.7-21.8 39-38.6 5.6-8.5 10.5-17.9 14.4-28.1 3.9-10.2 6.5-21.2 7.8-32.7 0.2-1.5 0.3-2.9 0.4-4.4q0.2-2.2 0.3-4.3 0.1-2.3 0.2-4.5v-2.2c0-0.7 0-1.5 0-2.2q-0.1-2.3-0.2-4.5c0-1.5-0.2-3-0.3-4.5-0.1-3-0.6-6-1-9-0.9-6-2.1-12.1-3.9-18-0.8-3-1.9-6-2.8-8.9-0.6-1.5-1.2-2.9-1.8-4.4l-0.8-2.2-1-2.2c-5.1-11.5-12-22.5-20.3-32.5-4.2-5-8.8-9.7-13.7-14.1-4.9-4.4-10.2-8.4-15.7-12.1-5.5-3.7-11.3-6.9-17.3-9.8-6.1-2.9-12.4-5.2-18.8-7.2-6.4-2-13-3.4-19.7-4.4-6.6-1-13.3-1.4-20.1-1.5-6.7 0.1-13.5 0.5-20.1 1.5-6.7 1-13.3 2.4-19.7 4.4-6.4 2-12.7 4.3-18.8 7.2-6 2.9-11.8 6.1-17.3 9.8-5.5 3.7-10.8 7.7-15.7 12.1-4.9 4.4-9.5 9.1-13.7 14.1-8.3 10-15.2 21-20.3 32.5l-1 2.2-0.8 2.2c-0.6 1.5-1.2 2.9-1.8 4.4-0.9 2.9-2 5.9-2.8 8.9-1.8 5.9-3 12-3.9 18-0.4 3-0.9 6-1 9-0.1 1.5-0.3 3-0.3 4.5q-0.1 2.2-0.2 4.5c0 0.7 0 1.5 0 2.2v2.2q0.1 2.2 0.2 4.4 0.1 2.2 0.3 4.4c0.1 1.5 0.2 2.9 0.4 4.4 1.3 11.5 3.9 22.5 7.8 32.7 3.9 10.2 8.8 19.6 14.4 28.1 11.3 16.8 25.3 29.6 39 38.6 6.9 4.5 13.7 8.2 20.2 11 1.6 0.8 3.3 1.3 4.8 2 1.6 0.6 3.2 1.2 4.7 1.7q2.3 0.8 4.6 1.6 2.2 0.6 4.3 1.2c11.4 3.2 20.7 4.2 27 4.6 3.1 0.4 5.6 0.3 7.2 0.4q2.4 0 2.5 0 0.1 0 2.5 0z"/>
				<path id="&lt;Compound Path&gt;" fill-rule="evenodd" class="s0" d="m624.3 445c0 0 0 1.1-0.1 3.2q0 1.6-0.1 4c0 0.8 0 1.6 0 2.5q-0.1 1.4-0.3 2.9c-0.5 8.3-1.8 20.4-5.9 35.3q-0.8 2.7-1.6 5.7-1 2.8-2 5.9c-0.6 2-1.5 4-2.3 6.1-0.8 2.1-1.6 4.2-2.6 6.3-3.6 8.5-8.3 17.5-14.1 26.5-11.7 18-28.3 36.4-50.2 51.4-11 7.5-23.2 14.1-36.6 19.3-1.6 0.7-3.4 1.2-5.1 1.8-1.7 0.6-3.4 1.3-5.1 1.8q-2.6 0.8-5.3 1.6-1.3 0.4-2.6 0.8-1.4 0.3-2.7 0.6-2.7 0.7-5.4 1.3c-1.9 0.5-3.7 0.8-5.6 1.1q-1.3 0.3-2.7 0.5l-1.4 0.3-1.4 0.2q-2.9 0.4-5.7 0.8c-1.9 0.3-3.8 0.4-5.7 0.6-1.9 0.1-3.8 0.3-5.8 0.5q-2.9 0.1-5.8 0.2l-2.9 0.1c-0.1 0-0.3 0-0.5 0h-0.3-0.7l-1.5-0.1q-2.9 0-5.8 0c-2-0.1-4-0.3-6-0.4-4-0.2-7.9-0.7-11.9-1.2-8-1.2-16-2.6-23.9-4.9-4-1-7.9-2.4-11.8-3.7-2-0.7-3.9-1.4-5.9-2.2l-2.9-1.1-2.9-1.3c-15.4-6.6-30.1-15.5-43.5-26.5q-2.4-2.1-4.9-4.2c-1.6-1.4-3.2-3-4.8-4.4q-1.2-1.2-2.3-2.3l-2.3-2.3-2.3-2.4c-0.8-0.8-1.5-1.6-2.2-2.4q-2.2-2.5-4.4-4.9c-1.4-1.7-2.7-3.5-4.1-5.2l-2-2.6-2-2.6-1.9-2.7c-0.7-0.9-1.3-1.8-1.9-2.7q-1.8-2.8-3.6-5.6c-1.2-1.9-2.3-3.8-3.4-5.7-0.5-1-1.1-1.9-1.7-2.9l-1.5-3-1.5-2.9q-0.8-1.5-1.5-3l-2.8-6.1c-0.9-2.1-1.6-4.2-2.5-6.2-0.4-1.1-0.8-2.1-1.2-3.2l-1.1-3.1-1.1-3.2c-0.3-1.1-0.7-2.1-1-3.2l-1.8-6.5c-0.6-2.1-1.1-4.3-1.6-6.5l-0.8-3.3-0.6-3.3c-0.3-2.2-0.8-4.4-1.1-6.6l-0.9-6.7q-0.2-1.7-0.3-3.4l-0.3-3.3-0.2-3.4c-0.1-1.1-0.1-2.2-0.2-3.4l-0.1-6.8 0.2-6.6c0-1.1 0-2.2 0.1-3.3l0.2-3.4 0.3-3.4q0.1-1.7 0.3-3.4l0.9-6.7c0.3-2.2 0.8-4.4 1.2-6.6l0.6-3.3 0.7-3.3c0.5-2.2 1-4.4 1.6-6.5l1.8-6.5c0.3-1.1 0.7-2.1 1-3.2l1.1-3.2 1.1-3.1c0.4-1.1 0.8-2.1 1.2-3.2 0.9-2 1.6-4.1 2.5-6.2l2.8-6.1q0.7-1.5 1.5-3l1.5-2.9 1.6-3c0.5-0.9 1.1-1.9 1.6-2.9 1.2-1.9 2.2-3.8 3.4-5.7q1.8-2.8 3.6-5.5c0.6-1 1.3-1.9 1.9-2.8l1.9-2.6 2-2.7 2-2.6c1.4-1.7 2.7-3.5 4.2-5.1q2.1-2.5 4.3-5c0.7-0.8 1.5-1.6 2.2-2.4l2.3-2.3 2.3-2.4q1.1-1.1 2.3-2.2c1.6-1.5 3.2-3.1 4.8-4.5q2.5-2.1 5-4.2c13.3-10.9 28-19.9 43.4-26.5l2.9-1.3 2.9-1.1c2-0.7 3.9-1.5 5.9-2.2 3.9-1.3 7.8-2.7 11.8-3.7 7.9-2.3 15.9-3.7 23.9-4.9 4-0.4 7.9-1 11.9-1.2 2-0.1 4-0.3 5.9-0.3q3-0.1 5.9-0.1c1 0 1.9-0.1 3 0l2.9 0.1q2.9 0.1 5.8 0.2c1.9 0.1 3.8 0.3 5.8 0.4 1.9 0.2 3.8 0.3 5.7 0.6q2.8 0.4 5.7 0.8l1.4 0.2 1.4 0.3q1.4 0.2 2.7 0.5c1.9 0.4 3.7 0.7 5.6 1.1q2.7 0.6 5.4 1.3 1.3 0.3 2.7 0.7 1.3 0.3 2.6 0.7 2.7 0.8 5.3 1.6c1.7 0.6 3.4 1.2 5.1 1.8 1.7 0.6 3.5 1.1 5.1 1.8 13.4 5.2 25.6 11.8 36.6 19.3 21.9 15 38.5 33.4 50.1 51.4 5.9 9 10.6 18 14.2 26.5 1 2.1 1.8 4.2 2.6 6.3 0.8 2.1 1.7 4.1 2.3 6.1q1 3.1 2 5.9 0.8 3 1.6 5.7c4.1 14.9 5.4 27 5.9 35.3q0.2 1.5 0.3 2.9c0 0.9 0 1.7 0 2.5q0.1 2.4 0.1 4c0.1 2.1 0.1 3.2 0.1 3.2zm-0.5 0q0 0 0 0 0 0 0 0zm0-3.2q-0.1-1.6-0.1-4c-0.1-0.8-0.1-1.6-0.1-2.5q-0.1-1.4-0.3-2.9c-0.5-8.2-1.8-20.3-6-35.1q-0.7-2.8-1.6-5.7-1-2.9-2-5.9c-0.6-2-1.4-4-2.3-6.1-0.8-2-1.6-4.2-2.6-6.2-3.6-8.6-8.4-17.4-14.2-26.4-5.9-8.9-13-17.9-21.3-26.5-8.4-8.6-18-16.8-29-24.1-10.9-7.3-23.2-13.7-36.4-18.8-1.7-0.6-3.4-1.1-5.1-1.7-1.7-0.6-3.4-1.2-5.1-1.7q-2.6-0.8-5.2-1.5-1.3-0.4-2.6-0.8-1.4-0.3-2.7-0.6-2.7-0.6-5.4-1.2c-1.8-0.4-3.6-0.7-5.4-1q-1.4-0.3-2.8-0.5l-1.4-0.3-1.4-0.2q-2.7-0.3-5.6-0.7c-1.8-0.2-3.7-0.3-5.6-0.5-1.9-0.1-3.8-0.3-5.7-0.4q-2.9-0.1-5.7-0.2h-2.9c-1 0-2 0-2.9 0q-2.9 0.1-5.8 0.2c-2 0.1-3.9 0.3-5.9 0.4-3.9 0.2-7.8 0.8-11.7 1.3-7.8 1.2-15.7 2.7-23.5 5.1-3.9 1-7.7 2.4-11.5 3.7-2 0.7-3.8 1.5-5.7 2.2l-2.9 1.2-2.8 1.2c-15.1 6.7-29.4 15.6-42.4 26.5q-2.4 2.1-4.8 4.1c-1.5 1.5-3 3-4.6 4.4q-1.2 1.1-2.3 2.2l-2.2 2.3-2.2 2.4c-0.8 0.7-1.5 1.5-2.2 2.3q-2.1 2.5-4.2 4.9c-1.4 1.6-2.7 3.3-4 5l-2 2.6-1.9 2.6-1.8 2.6c-0.7 0.9-1.3 1.8-1.8 2.7q-1.8 2.7-3.5 5.5c-1.2 1.8-2.2 3.7-3.3 5.6-0.5 0.9-1.1 1.8-1.6 2.8l-1.5 2.9-1.5 2.9c-0.5 1-1 1.9-1.4 2.9l-2.7 6c-0.9 2-1.6 4-2.4 6-0.4 1-0.8 2.1-1.2 3.1l-1.1 3.1-1 3.1c-0.4 1-0.7 2-1 3.1l-1.8 6.3c-0.5 2.1-1 4.3-1.5 6.4l-0.7 3.2-0.6 3.2c-0.4 2.2-0.8 4.3-1.1 6.5-1.3 8.7-1.8 17.4-1.9 26.2 0.1 8.8 0.6 17.5 1.9 26.2 0.3 2.2 0.7 4.3 1.1 6.5l0.6 3.2 0.7 3.2c0.5 2.1 1 4.3 1.5 6.4l1.8 6.3c0.3 1.1 0.6 2.1 1 3.1l1 3.1 1.1 3.1c0.4 1 0.8 2 1.2 3.1 0.8 2 1.5 4 2.4 6l2.7 6q0.6 1.5 1.4 2.9l1.5 2.9 1.5 2.9c0.5 1 1.1 1.9 1.6 2.8 1.1 1.9 2.1 3.8 3.3 5.6q1.7 2.8 3.5 5.5c0.5 0.9 1.1 1.8 1.8 2.7l1.8 2.6 1.9 2.6 2 2.6c1.3 1.7 2.6 3.4 4 5q2.1 2.4 4.2 4.9c0.7 0.8 1.4 1.6 2.2 2.3l2.2 2.4 2.2 2.3q1.1 1.1 2.3 2.2c1.6 1.4 3.1 2.9 4.6 4.4q2.4 2 4.8 4.1c13 10.9 27.3 19.8 42.4 26.5l2.8 1.2 2.9 1.2c1.9 0.7 3.7 1.5 5.7 2.2 3.8 1.3 7.6 2.7 11.5 3.7 7.8 2.4 15.7 3.9 23.5 5.1 3.9 0.5 7.8 1.1 11.7 1.3 2 0.1 3.9 0.3 5.8 0.4q3 0.1 5.9 0.2c0.9 0 1.9 0 2.9 0h2.9q2.8-0.1 5.7-0.2c1.9-0.1 3.8-0.3 5.7-0.4 1.9-0.2 3.8-0.3 5.6-0.5q2.9-0.4 5.6-0.7l1.4-0.2 1.4-0.3q1.4-0.2 2.8-0.5c1.8-0.3 3.6-0.6 5.4-1q2.7-0.6 5.4-1.2 1.3-0.3 2.7-0.6 1.3-0.4 2.6-0.8 2.6-0.7 5.2-1.5c1.7-0.5 3.4-1.1 5.1-1.7 1.7-0.6 3.4-1.1 5.1-1.7 13.2-5.1 25.5-11.5 36.4-18.8 11-7.3 20.6-15.5 29-24.1 8.3-8.6 15.4-17.6 21.3-26.5 5.8-9 10.6-17.8 14.2-26.4 1-2 1.8-4.2 2.6-6.2 0.9-2.1 1.7-4.1 2.3-6.1q1-3 2-5.9 0.9-2.9 1.6-5.7c4.2-14.8 5.5-26.9 6-35.1q0.2-1.5 0.3-2.9c0-0.9 0-1.7 0.1-2.5q0-2.4 0.1-4 0-3.1 0-3.2 0-0.1 0-3.2z"/>
				<path id="&lt;Compound Path&gt;" fill-rule="evenodd" class="s0" d="m445 255.1c0 0 1.2 0 3.4 0.1q1.7 0 4.2 0.1c0.8 0 1.7 0 2.7 0.1q1.5 0.1 3.1 0.2c8.7 0.5 21.5 1.9 37.3 6.3q2.9 0.8 6 1.7 3.1 1 6.3 2.1c2.1 0.7 4.3 1.5 6.5 2.4 2.2 0.9 4.4 1.7 6.7 2.7 9 3.9 18.5 8.9 28 15.1 19.1 12.3 38.5 29.9 54.4 53.1 7.9 11.6 14.9 24.6 20.4 38.8 0.8 1.7 1.3 3.5 2 5.3 0.6 1.8 1.3 3.6 1.9 5.5q0.8 2.8 1.6 5.6 0.4 1.4 0.8 2.8 0.4 1.4 0.7 2.8 0.7 2.9 1.4 5.8c0.5 1.9 0.8 3.8 1.2 5.8q0.2 1.5 0.5 2.9l0.3 1.5 0.2 1.5q0.4 3 0.8 6c0.3 2 0.5 4 0.6 6 0.2 2.1 0.4 4.1 0.6 6.2q0.1 3 0.2 6.1 0 1.6 0.1 3.1c0 0.1 0 0.3 0 0.5v0.3 0.8l-0.1 1.5q0 3.1-0.1 6.2c0 2.1-0.2 4.2-0.3 6.3-0.2 4.3-0.8 8.4-1.3 12.7-1.2 8.4-2.8 16.9-5.2 25.2-1.1 4.3-2.6 8.4-3.9 12.6-0.7 2-1.6 4.1-2.3 6.1l-1.2 3.1-1.4 3.1c-7 16.3-16.5 31.8-28.1 46q-2.2 2.6-4.4 5.2c-1.5 1.7-3.2 3.4-4.7 5.1q-1.2 1.2-2.4 2.5l-2.5 2.4-2.5 2.4c-0.8 0.8-1.6 1.6-2.5 2.3q-2.6 2.3-5.3 4.6c-1.7 1.5-3.6 2.9-5.4 4.4l-2.7 2.2-2.9 2-2.8 2c-0.9 0.7-1.9 1.4-2.9 2q-2.9 1.9-5.9 3.9c-2 1.2-4 2.3-6 3.5-1 0.6-2.1 1.2-3.1 1.8l-3.1 1.6-3.1 1.6q-1.6 0.9-3.2 1.6-3.2 1.5-6.5 2.9c-2.1 1-4.3 1.8-6.5 2.7-1.1 0.4-2.2 0.9-3.3 1.3l-3.4 1.1-3.3 1.2c-1.2 0.3-2.3 0.7-3.4 1l-6.9 2c-2.3 0.6-4.6 1.1-6.9 1.6l-3.5 0.8-3.5 0.7c-2.3 0.4-4.6 0.9-7 1.2l-7 0.9q-1.8 0.2-3.6 0.4l-3.5 0.2-3.6 0.3c-1.2 0.1-2.4 0.1-3.6 0.1l-7.2 0.2-7-0.2c-1.2 0-2.3 0-3.5-0.1l-3.6-0.3-3.6-0.2q-1.8-0.2-3.6-0.4l-7-0.9c-2.4-0.3-4.7-0.8-7-1.2l-3.5-0.7-3.5-0.8c-2.3-0.5-4.6-1-6.9-1.6l-6.9-2c-1.1-0.3-2.2-0.7-3.4-1.1l-3.3-1.1-3.4-1.1c-1.1-0.4-2.2-0.9-3.3-1.3-2.2-0.9-4.4-1.7-6.5-2.7q-3.3-1.4-6.5-2.9c-1.1-0.5-2.1-1-3.1-1.6l-3.2-1.6-3.1-1.6c-1-0.6-2-1.2-3.1-1.8-2-1.2-4-2.3-6-3.6q-3-1.9-5.9-3.8c-1-0.6-1.9-1.3-2.9-2l-2.8-2-2.9-2.1-2.7-2.1c-1.8-1.5-3.7-2.9-5.4-4.4q-2.7-2.3-5.3-4.6c-0.8-0.7-1.7-1.5-2.5-2.3l-2.5-2.5-2.5-2.4c-0.8-0.8-1.6-1.6-2.4-2.5-1.5-1.6-3.2-3.3-4.7-5q-2.2-2.6-4.4-5.2c-11.6-14.2-21.1-29.7-28.1-46l-1.3-3.1-1.2-3.1c-0.8-2-1.6-4.1-2.4-6.1-1.3-4.2-2.8-8.3-3.9-12.6-2.4-8.3-3.9-16.8-5.2-25.2-0.5-4.3-1.1-8.4-1.3-12.7-0.1-2.1-0.3-4.1-0.3-6.2q-0.1-3.2-0.1-6.3c0-1-0.1-2-0.1-3.1q0.1-1.6 0.2-3.1 0.1-3.1 0.2-6.1c0.1-2 0.3-4.1 0.5-6.1 0.2-2.1 0.3-4.1 0.6-6.1q0.4-3 0.8-6l0.2-1.5 0.3-1.5q0.3-1.4 0.6-2.9c0.3-2 0.7-3.9 1.1-5.8q0.7-2.9 1.4-5.8 0.3-1.4 0.7-2.8 0.4-1.4 0.8-2.8 0.8-2.8 1.7-5.6c0.5-1.9 1.2-3.7 1.8-5.5 0.7-1.8 1.2-3.6 2-5.3 5.5-14.2 12.5-27.2 20.4-38.8 15.9-23.2 35.3-40.8 54.4-53.1 9.5-6.2 19-11.2 28-15.1 2.3-1 4.5-1.8 6.7-2.7 2.2-0.9 4.4-1.7 6.5-2.4q3.2-1.1 6.3-2.1 3.1-0.9 6-1.7c15.8-4.4 28.6-5.8 37.3-6.3q1.6-0.1 3.1-0.2c0.9-0.1 1.9-0.1 2.7-0.1q2.5-0.1 4.2-0.1c2.2-0.1 3.4-0.1 3.4-0.1zm0 0.4q0 0 0 0 0 0 0 0zm-3.4 0.1q-1.7 0.1-4.2 0.1c-0.8 0.1-1.7 0.1-2.7 0.1q-1.4 0.1-3.1 0.3c-8.6 0.5-21.4 2-37.1 6.3q-3 0.9-6 1.8-3.1 1-6.3 2.1c-2.1 0.6-4.3 1.5-6.4 2.4-2.2 0.9-4.5 1.7-6.7 2.7-9 3.9-18.4 8.9-27.9 15.2-9.4 6.2-19 13.7-28.1 22.5-9.1 8.9-17.8 19.1-25.6 30.7-7.7 11.6-14.5 24.5-19.8 38.6-0.7 1.7-1.2 3.6-1.9 5.3-0.6 1.8-1.2 3.6-1.8 5.5q-0.8 2.7-1.5 5.5-0.4 1.4-0.8 2.8-0.4 1.4-0.7 2.8-0.7 2.8-1.3 5.7c-0.4 1.9-0.7 3.8-1.1 5.8q-0.2 1.4-0.5 2.9l-0.3 1.5-0.2 1.4q-0.3 3-0.7 6c-0.3 1.9-0.4 3.9-0.6 5.9-0.1 2-0.3 4-0.4 6.1q-0.1 3-0.2 6.1 0 1.5 0 3c0 1 0 2.1 0 3.1q0.1 3.1 0.2 6.1c0.1 2.1 0.3 4.2 0.4 6.2 0.2 4.2 0.9 8.3 1.4 12.5 1.3 8.2 2.9 16.6 5.4 24.8 1.1 4.1 2.6 8.2 3.9 12.3 0.8 2 1.6 4 2.4 6l1.2 3 1.3 3c7.1 16 16.5 31.1 28 44.9q2.3 2.5 4.5 5.1c1.5 1.6 3 3.2 4.6 4.9 0.8 0.8 1.5 1.6 2.3 2.4l2.5 2.3 2.4 2.4c0.9 0.8 1.7 1.6 2.6 2.3q2.5 2.2 5.1 4.4c1.7 1.5 3.6 2.9 5.3 4.3l2.7 2.1 2.8 2 2.8 2c0.9 0.6 1.9 1.3 2.8 1.9q2.9 1.8 5.8 3.7c2 1.2 4 2.3 6 3.5 1 0.5 1.9 1.1 3 1.7l3 1.5 3.1 1.6q1.5 0.8 3.1 1.5l6.3 2.8c2.1 1 4.3 1.8 6.4 2.6 1.1 0.4 2.2 0.9 3.3 1.3l3.2 1.1 3.3 1.1c1.1 0.4 2.2 0.7 3.3 1l6.7 1.9c2.2 0.6 4.5 1.1 6.8 1.6l3.4 0.8 3.4 0.6c2.3 0.4 4.5 0.9 6.8 1.2 9.2 1.3 18.5 1.9 27.8 2 9.3-0.1 18.6-0.7 27.8-2 2.3-0.3 4.5-0.8 6.8-1.2l3.4-0.6 3.4-0.8c2.3-0.5 4.6-1 6.8-1.6l6.7-1.9c1.1-0.3 2.2-0.6 3.3-1l3.3-1.1 3.2-1.1c1.1-0.4 2.2-0.9 3.3-1.3 2.1-0.8 4.3-1.6 6.4-2.6l6.3-2.8q1.6-0.7 3.1-1.5l3.1-1.6 3-1.5c1.1-0.6 2-1.2 3-1.7 2-1.2 4-2.3 6-3.5q2.9-1.9 5.8-3.7c0.9-0.6 1.9-1.3 2.8-1.9l2.8-2 2.8-2 2.7-2.1c1.7-1.4 3.6-2.8 5.3-4.3q2.6-2.2 5.1-4.4c0.9-0.7 1.7-1.5 2.6-2.3l2.4-2.4 2.5-2.3c0.8-0.8 1.5-1.6 2.3-2.4 1.5-1.7 3.1-3.3 4.6-4.9q2.2-2.6 4.4-5.1c11.5-13.8 21-28.9 28.1-44.9l1.3-3 1.2-3c0.8-2 1.6-4 2.4-6 1.3-4.1 2.8-8.2 3.9-12.3 2.5-8.2 4.1-16.6 5.4-24.8 0.5-4.2 1.2-8.3 1.4-12.5 0.1-2 0.3-4.1 0.4-6.1q0.1-3.1 0.2-6.2c0-1 0-2.1 0-3.1q0-1.5 0-3-0.1-3.1-0.2-6.1c-0.1-2-0.3-4.1-0.4-6.1-0.2-2-0.3-4-0.6-5.9q-0.4-3-0.7-6l-0.2-1.4-0.3-1.5q-0.3-1.5-0.5-2.9c-0.4-2-0.7-3.9-1.1-5.8q-0.6-2.9-1.3-5.7-0.3-1.4-0.7-2.8-0.4-1.4-0.8-2.8-0.7-2.8-1.5-5.5c-0.6-1.9-1.2-3.7-1.8-5.5-0.7-1.7-1.2-3.6-1.9-5.3-5.3-14.1-12.1-27-19.8-38.6-7.8-11.6-16.5-21.8-25.6-30.7-9.1-8.8-18.7-16.3-28.1-22.5-9.5-6.3-18.9-11.3-27.9-15.2-2.2-1-4.5-1.8-6.7-2.7-2.1-0.9-4.3-1.8-6.4-2.4q-3.2-1.1-6.3-2.1-3-0.9-6-1.8c-15.7-4.3-28.5-5.8-37.1-6.3q-1.7-0.2-3.1-0.3c-1 0-1.9 0-2.7-0.1q-2.5 0-4.2-0.1c-2.2 0-3.3-0.1-3.4-0.1-0.1 0-1.2 0.1-3.4 0.1z"/>
				<path id="&lt;Compound Path&gt;" fill-rule="evenodd" class="s0" d="m680.2 445c0 0 0 1.5-0.1 4.3q0 2.1-0.1 5.2c0 1 0 2.2-0.1 3.4q-0.2 1.8-0.3 3.8c-0.7 10.9-2.4 26.9-7.9 46.5q-1 3.7-2.1 7.6-1.3 3.8-2.6 7.8c-0.9 2.7-2 5.3-3.1 8.1-1.1 2.7-2.1 5.5-3.4 8.3-4.8 11.3-11 23.1-18.8 35-7.7 11.9-17 23.9-28.1 35.4-11 11.4-23.7 22.5-38.2 32.4-14.5 9.8-30.7 18.5-48.4 25.3-2.1 0.9-4.4 1.6-6.7 2.4-2.2 0.8-4.5 1.6-6.8 2.3q-3.4 1.1-6.9 2.1-1.8 0.5-3.5 1c-1.2 0.3-2.4 0.6-3.6 0.9q-3.5 0.8-7.1 1.7c-2.4 0.5-4.9 0.9-7.3 1.4q-1.8 0.3-3.7 0.7l-1.8 0.3-1.9 0.3q-3.7 0.5-7.4 1c-2.5 0.4-5 0.5-7.6 0.7-2.5 0.3-5 0.5-7.6 0.7q-3.8 0.1-7.7 0.2-1.9 0.1-3.8 0.1c-0.1 0.1-0.4 0.1-0.6 0.1l-0.4-0.1h-1-1.9q-3.9-0.1-7.7-0.1c-2.6-0.1-5.2-0.4-7.9-0.5-5.2-0.3-10.4-1-15.7-1.6-10.5-1.6-21-3.5-31.4-6.6-5.3-1.3-10.4-3.2-15.6-4.8-2.6-1-5.1-2-7.7-3l-3.8-1.5-3.8-1.6c-20.3-8.8-39.6-20.6-57.2-35.1q-3.2-2.8-6.5-5.5c-2.1-1.9-4.2-3.9-6.2-5.9-1.1-1-2.1-2-3.2-3l-2.9-3.1-3-3.1c-1-1-2-2-3-3.1q-2.8-3.3-5.7-6.5c-1.8-2.2-3.6-4.5-5.4-6.8-0.9-1.1-1.8-2.3-2.7-3.4l-2.5-3.5-2.5-3.6c-0.9-1.1-1.8-2.3-2.5-3.6q-2.4-3.6-4.8-7.3c-1.5-2.4-2.9-5-4.4-7.5-0.7-1.3-1.5-2.5-2.2-3.8l-2-3.9-2-3.9-1-1.9c-0.4-0.7-0.6-1.4-1-2q-1.8-4-3.6-8c-1.2-2.7-2.2-5.5-3.3-8.2-0.5-1.4-1.1-2.7-1.6-4.1l-1.4-4.2-1.4-4.2-0.7-2.1c-0.3-0.7-0.4-1.4-0.7-2.1l-2.4-8.5c-0.4-1.4-0.7-2.8-1-4.3l-1-4.3-1-4.3-0.8-4.3-0.8-4.4c-0.3-1.5-0.6-2.9-0.7-4.4l-1.2-8.8c0-0.7-0.2-1.4-0.2-2.2l-0.2-2.2-0.3-4.4-0.4-4.4c-0.1-1.5-0.1-3-0.2-4.4l-0.2-9 0.3-8.7c0-1.5 0-2.9 0.1-4.4l0.4-4.5 0.3-4.4 0.2-2.2c0-0.8 0.2-1.5 0.2-2.2l1.2-8.8c0.1-1.5 0.4-2.9 0.7-4.4l0.8-4.4 0.8-4.3 1-4.3 1-4.3c0.3-1.5 0.6-2.9 1-4.3l2.4-8.5c0.3-0.7 0.4-1.4 0.7-2.1l0.7-2.1 1.4-4.2 1.4-4.2c0.5-1.4 1.1-2.7 1.6-4.1 1.1-2.7 2.1-5.5 3.3-8.1q1.8-4.1 3.7-8.1c0.3-0.6 0.6-1.3 0.9-1.9l1-2 2-3.9 2-3.9c0.7-1.3 1.5-2.5 2.2-3.8 1.5-2.5 2.9-5 4.5-7.5q2.3-3.7 4.7-7.3c0.8-1.3 1.6-2.4 2.5-3.6l2.5-3.6 2.5-3.5c0.9-1.1 1.8-2.3 2.7-3.4 1.8-2.2 3.6-4.6 5.5-6.8q2.8-3.2 5.6-6.5c1-1.1 2-2.1 3-3.1l3-3.1 3-3.1c1-1 2-2 3.1-3 2.1-1.9 4.1-4 6.2-5.8q3.3-2.8 6.5-5.6c17.6-14.4 36.9-26.3 57.2-35l3.8-1.7 3.8-1.5c2.6-1 5.1-2 7.7-2.9 5.2-1.7 10.3-3.6 15.6-4.9 10.4-3 20.9-5 31.4-6.6 5.3-0.6 10.5-1.3 15.7-1.6 2.6-0.1 5.2-0.4 7.8-0.4q3.9-0.1 7.8-0.2c1.3 0 2.5 0 3.9 0q1.9 0 3.9 0.1 3.8 0.1 7.6 0.3c2.5 0.1 5.1 0.4 7.6 0.6 2.5 0.2 5.1 0.3 7.6 0.7q3.7 0.5 7.4 1l1.9 0.3 1.8 0.3q1.9 0.4 3.7 0.7c2.4 0.5 4.9 0.9 7.3 1.4q3.6 0.9 7.1 1.7c1.2 0.3 2.4 0.6 3.6 0.9q1.7 0.5 3.5 1 3.5 1.1 6.9 2.1c2.3 0.7 4.6 1.5 6.8 2.3 2.3 0.8 4.5 1.5 6.7 2.4 17.7 6.9 33.9 15.5 48.4 25.3 1.8 1.2 3.5 2.6 5.3 3.8 1.7 1.3 3.5 2.5 5.2 3.8q2.5 2 5 4c1.6 1.4 3.3 2.6 4.9 4 6.3 5.5 12.3 11 17.8 16.8 11.1 11.5 20.4 23.5 28.1 35.4 7.8 11.9 14 23.7 18.8 35 1.3 2.8 2.3 5.6 3.4 8.3 1.1 2.8 2.2 5.4 3 8.1q1.4 4 2.7 7.8 1.1 3.9 2.1 7.6c5.5 19.6 7.2 35.6 7.9 46.5q0.1 2 0.3 3.8c0.1 1.2 0.1 2.4 0.1 3.4q0.1 3.1 0.1 5.2c0.1 2.8 0.1 4.3 0.1 4.3zm-0.4 0q0 0 0 0 0 0 0 0zm-0.2-4.3q0-2.1-0.1-5.2c0-1 0-2.1-0.1-3.3q-0.1-1.8-0.3-3.9c-0.7-10.8-2.5-26.8-7.9-46.4q-1.1-3.6-2.2-7.5-1.3-3.8-2.6-7.8c-0.9-2.7-2-5.3-3-8-1.1-2.8-2.2-5.6-3.5-8.4-4.8-11.2-11.1-22.9-18.9-34.7-7.7-11.9-17.1-23.8-28.1-35.1-11.1-11.4-23.8-22.4-38.3-32-14.5-9.7-30.7-18.1-48.2-24.8-2.2-0.9-4.5-1.5-6.7-2.3-2.2-0.8-4.5-1.6-6.7-2.3q-3.5-0.9-7-1.9-1.7-0.5-3.4-1c-1.2-0.3-2.4-0.6-3.6-0.8q-3.5-0.9-7.1-1.7c-2.4-0.5-4.8-0.9-7.2-1.3q-1.8-0.3-3.6-0.7l-1.9-0.3-1.8-0.2q-3.7-0.5-7.4-1c-2.5-0.3-5-0.5-7.5-0.7-2.5-0.1-5-0.4-7.5-0.5q-3.8-0.1-7.6-0.2-1.9-0.1-3.8-0.1c-1.3 0-2.6 0.1-3.9 0.1q-3.8 0.1-7.6 0.2c-2.6 0.1-5.2 0.3-7.8 0.5-5.1 0.3-10.3 1.1-15.5 1.7-10.3 1.7-20.7 3.7-31 6.8-5.2 1.3-10.2 3.2-15.3 4.9-2.5 0.9-5 1.9-7.6 2.9l-3.7 1.5-3.8 1.7c-19.9 8.8-38.8 20.6-56 35q-3.2 2.7-6.3 5.5c-2.1 1.9-4.1 3.8-6.2 5.8-1 0.9-2 1.9-3 2.9l-2.9 3.1-3 3c-0.9 1-1.9 2.1-2.8 3.2q-2.8 3.2-5.6 6.4c-1.8 2.1-3.5 4.4-5.3 6.6-0.9 1.2-1.8 2.3-2.6 3.4l-2.5 3.5-2.5 3.5c-0.8 1.1-1.6 2.3-2.4 3.5q-2.3 3.6-4.6 7.2c-1.5 2.5-2.9 5-4.3 7.4-0.7 1.3-1.5 2.5-2.2 3.8l-1.9 3.8-2 3.9-1 1.9c-0.3 0.6-0.6 1.3-0.9 1.9q-1.7 4-3.5 7.9c-1.2 2.6-2.1 5.3-3.2 8-0.5 1.4-1.1 2.7-1.6 4l-1.4 4.1-1.4 4.1-0.7 2.1c-0.2 0.7-0.4 1.4-0.6 2.1l-2.3 8.3c-0.5 1.4-0.7 2.8-1.1 4.2l-0.9 4.3-1 4.2-0.8 4.3-0.7 4.2c-0.3 1.5-0.6 2.9-0.7 4.3l-1.1 8.7c-0.1 0.7-0.2 1.4-0.3 2.1l-0.1 2.2-0.4 4.3-0.3 4.3c-0.1 1.5-0.1 2.9-0.2 4.4l-0.2 8.7 0.2 8.7c0.1 1.4 0.1 2.9 0.2 4.3l0.3 4.4 0.4 4.3 0.1 2.2c0.1 0.7 0.2 1.4 0.3 2.1l1.1 8.7c0.1 1.4 0.4 2.8 0.7 4.3l0.7 4.2 0.8 4.3 1 4.2 0.9 4.3c0.4 1.4 0.6 2.8 1.1 4.2l2.3 8.3c0.2 0.7 0.4 1.4 0.6 2.1l0.7 2.1 1.4 4.1 1.4 4.1c0.5 1.3 1.1 2.6 1.6 4 1.1 2.7 2 5.4 3.2 8q1.8 3.9 3.5 7.9c0.3 0.6 0.6 1.3 0.9 1.9l1 1.9 2 3.9 1.9 3.8c0.7 1.3 1.5 2.5 2.2 3.7 1.4 2.5 2.8 5 4.3 7.5q2.3 3.6 4.6 7.2c0.8 1.2 1.6 2.4 2.4 3.5l2.5 3.5 2.5 3.5c0.8 1.1 1.7 2.2 2.6 3.4 1.8 2.2 3.5 4.5 5.3 6.6q2.8 3.2 5.6 6.4c0.9 1.1 1.9 2.2 2.8 3.2l3 3 2.9 3.1c1 1 2 2 3 2.9 2.1 2 4.1 3.9 6.2 5.8q3.1 2.8 6.3 5.5c17.2 14.4 36.1 26.2 56 35l3.8 1.7 3.7 1.5c2.6 1 5.1 2 7.6 2.9 5.1 1.7 10.1 3.6 15.3 4.9 10.3 3.1 20.7 5.1 31 6.8 5.2 0.6 10.4 1.4 15.5 1.7 2.6 0.2 5.2 0.4 7.7 0.5q3.9 0.1 7.8 0.2c1.2 0 2.5 0.1 3.8 0.1q1.9 0 3.8-0.1 3.8-0.1 7.6-0.2c2.5-0.1 5-0.4 7.5-0.5 2.5-0.2 5-0.4 7.5-0.7q3.7-0.5 7.4-1l1.8-0.2 1.9-0.3q1.8-0.4 3.6-0.7c2.4-0.4 4.8-0.8 7.2-1.3q3.6-0.8 7.1-1.7c1.2-0.2 2.4-0.5 3.6-0.8q1.7-0.5 3.4-1 3.5-1 7-1.9c2.2-0.7 4.5-1.5 6.7-2.3 2.2-0.8 4.5-1.4 6.7-2.3 17.5-6.7 33.7-15.1 48.2-24.8 14.5-9.6 27.2-20.6 38.3-32 11-11.3 20.4-23.2 28.1-35.1 7.8-11.8 14.1-23.5 18.9-34.7 1.3-2.8 2.4-5.6 3.5-8.4 1-2.7 2.1-5.3 3-8q1.3-4 2.6-7.8 1.1-3.9 2.2-7.5c5.4-19.6 7.2-35.6 7.9-46.4q0.2-2.1 0.3-3.9c0.1-1.1 0.1-2.3 0.1-3.3q0.1-3.1 0.1-5.2c0.1-2.8 0.2-4.2 0.2-4.3 0-0.1-0.1-1.5-0.2-4.3z"/>
				<path id="&lt;Compound Path&gt;" fill-rule="evenodd" class="s0" d="m445 705.5c0 0-1.6 0-4.7-0.1q-2.3 0-5.7-0.1c-1.2-0.1-2.4 0-3.7-0.1q-2-0.2-4.3-0.4c-11.9-0.7-29.5-2.6-51.1-8.6q-4.1-1.2-8.3-2.4-4.2-1.4-8.6-2.9c-2.9-0.9-5.9-2.1-8.9-3.3-3-1.2-6.1-2.3-9.2-3.8-12.4-5.3-25.3-12.1-38.4-20.6-13.1-8.5-26.2-18.8-38.9-30.9-6.3-6.1-12.4-12.7-18.4-19.6-1.6-1.7-3-3.6-4.4-5.4q-2.2-2.7-4.4-5.5c-1.4-1.9-2.8-3.8-4.2-5.7-1.4-2-2.8-3.9-4.2-5.9-10.7-15.9-20.2-33.7-27.7-53.1l-0.8-1.8c-0.2-0.6-0.4-1.3-0.6-1.9q-0.6-1.8-1.3-3.7c-0.8-2.5-1.7-4.9-2.5-7.5q-1.2-3.8-2.3-7.6-0.5-1.9-1.1-3.8c-0.3-1.3-0.6-2.6-0.9-3.9q-1-4-1.9-7.9c-0.4-1.3-0.6-2.7-0.8-4q-0.4-2-0.8-4-0.3-2-0.7-4l-0.4-2.1-0.3-2q-0.5-4.1-1.1-8.2c-0.4-2.7-0.6-5.5-0.8-8.3-0.2-2.8-0.5-5.5-0.7-8.3q-0.1-4.2-0.2-8.5-0.1-2.1-0.2-4.2c0-0.1 0-0.4 0-0.6v-0.5-1.1l0.1-2.1q0.1-4.2 0.1-8.5c0-1.4 0.2-2.8 0.3-4.3q0.1-2.1 0.3-4.3c0.2-5.8 1.1-11.5 1.7-17.3 1.8-11.5 3.9-23.1 7.3-34.5 1.4-5.8 3.5-11.4 5.3-17.1 1-2.8 2.2-5.6 3.2-8.4l1.7-4.2 1.8-4.2c9.6-22.2 22.7-43.4 38.6-62.7q3-3.6 6.1-7.2c2-2.3 4.2-4.5 6.4-6.8 1.1-1.2 2.1-2.3 3.2-3.5l3.4-3.2 3.5-3.3c1.1-1.1 2.2-2.2 3.4-3.2q3.6-3.1 7.2-6.3c1.1-1 2.4-2 3.7-3l3.7-2.9c1.2-1 2.5-2 3.7-3l3.9-2.8 3.9-2.7c1.3-1 2.6-1.9 3.9-2.8q4.1-2.6 8.1-5.2c1.3-0.9 2.7-1.6 4.1-2.4l4.2-2.4c1.3-0.8 2.7-1.7 4.1-2.4l4.3-2.2 4.3-2.3 2.1-1.1c0.7-0.3 1.5-0.6 2.2-1q4.4-2 8.8-4c2.9-1.3 6-2.4 9-3.6 1.5-0.6 3-1.2 4.5-1.7l4.6-1.6 4.5-1.5 2.3-0.8c0.8-0.3 1.6-0.5 2.4-0.7l9.3-2.7c1.5-0.5 3.1-0.7 4.7-1.1l4.7-1.1 4.8-1.1 4.7-0.9 4.8-0.9c1.6-0.2 3.2-0.6 4.8-0.7l9.7-1.3c0.8-0.1 1.6-0.2 2.4-0.3l2.4-0.2 4.9-0.3 4.8-0.4c1.6-0.2 3.2-0.1 4.9-0.2l9.8-0.2 9.6 0.2c1.6 0.1 3.2 0 4.8 0.2l4.9 0.4 4.9 0.3 2.4 0.2c0.8 0.1 1.6 0.2 2.4 0.3l9.7 1.3c1.6 0.1 3.2 0.5 4.8 0.8l4.8 0.8 4.7 0.9 4.8 1.1 4.7 1.1c1.6 0.4 3.2 0.7 4.7 1.1l9.3 2.7c0.8 0.2 1.6 0.4 2.4 0.7l2.3 0.8 4.5 1.5 4.6 1.6c1.5 0.5 3 1.1 4.5 1.7 3 1.2 6.1 2.4 9 3.6q4.4 2 8.8 4c0.7 0.4 1.5 0.7 2.2 1.1l2.1 1.1 4.3 2.2 4.3 2.2c1.4 0.8 2.7 1.6 4.1 2.4l4.2 2.4c1.4 0.8 2.8 1.6 4.1 2.5q4 2.6 8.1 5.2c1.3 0.8 2.6 1.7 3.9 2.7l3.9 2.8 3.8 2.7c1.3 1 2.5 2 3.8 3l3.7 2.9c1.3 1 2.5 2 3.7 3q3.6 3.2 7.2 6.3c1.2 1 2.3 2.1 3.4 3.2l3.4 3.3 3.5 3.3c1.1 1.1 2.1 2.2 3.2 3.4 2.1 2.3 4.4 4.5 6.4 6.9q3.1 3.5 6.1 7.1c15.9 19.3 28.9 40.5 38.6 62.7l1.8 4.2 1.6 4.2c1.1 2.8 2.2 5.6 3.3 8.4 1.8 5.7 3.9 11.4 5.3 17.1 3.4 11.4 5.5 23 7.2 34.5 0.7 5.8 1.5 11.6 1.8 17.3 0.2 2.9 0.5 5.7 0.6 8.6q0 4.3 0.1 8.5c0 1.5 0.1 2.8 0.1 4.3q-0.1 2.1-0.2 4.2-0.1 4.2-0.2 8.4c-0.2 2.8-0.5 5.6-0.7 8.4-0.3 2.8-0.4 5.6-0.9 8.3q-0.5 4.1-1.1 8.2l-0.2 2-0.4 2.1q-0.4 2-0.8 4-0.3 2-0.7 4c-0.3 1.3-0.5 2.7-0.8 4q-0.9 3.9-1.9 7.9c-0.3 1.3-0.6 2.6-0.9 3.9q-0.6 1.9-1.1 3.8-1.2 3.8-2.3 7.6c-0.8 2.6-1.7 5-2.5 7.5q-0.7 1.9-1.3 3.7c-0.2 0.6-0.4 1.3-0.7 1.9l-0.7 1.8c-7.5 19.4-17 37.2-27.8 53.1-1.3 2-2.7 3.9-4.1 5.9-1.4 1.9-2.8 3.8-4.2 5.7q-2.2 2.8-4.4 5.5c-1.4 1.8-2.8 3.7-4.4 5.4-6 6.9-12.1 13.5-18.4 19.6-12.7 12.1-25.8 22.4-38.9 30.9-13.1 8.5-26 15.3-38.5 20.6-3 1.5-6.1 2.6-9.1 3.8-3 1.2-6 2.4-8.9 3.3q-4.4 1.5-8.6 2.9-4.2 1.2-8.3 2.4c-21.6 6-39.2 7.9-51.1 8.6q-2.3 0.2-4.3 0.4c-1.3 0.1-2.5 0-3.7 0.1q-3.4 0.1-5.7 0.1c-3.1 0.1-4.7 0.1-4.7 0.1zm0-0.4q0 0 0 0 0 0 0 0zm4.7-0.2q2.3 0 5.7-0.1c1.2 0 2.4 0 3.7-0.1q2-0.2 4.2-0.4c11.9-0.7 29.5-2.7 51.1-8.7q4-1.1 8.2-2.4 4.2-1.4 8.6-2.8c2.9-1 5.8-2.2 8.9-3.4 2.9-1.2 6.1-2.3 9.1-3.7 12.4-5.4 25.2-12.3 38.2-20.8 13-8.5 26.1-18.8 38.6-31 12.5-12.1 24.6-26.1 35.2-42.1 10.6-15.9 19.9-33.7 27.2-53l0.7-1.8c0.2-0.6 0.4-1.2 0.6-1.8q0.7-1.8 1.3-3.7c0.8-2.5 1.7-4.9 2.5-7.4q1-3.8 2.1-7.6 0.6-1.9 1.1-3.9c0.3-1.2 0.6-2.5 0.9-3.8q0.9-3.9 1.8-7.9c0.3-1.3 0.5-2.6 0.8-3.9q0.3-2 0.7-4 0.3-2 0.7-4l0.4-2 0.2-2q0.5-4.1 1.1-8.2c0.4-2.7 0.5-5.4 0.7-8.2 0.2-2.7 0.5-5.5 0.6-8.2q0.1-4.2 0.2-8.4 0.1-2.1 0.1-4.2c0-1.4 0-2.8 0-4.2q-0.2-4.2-0.3-8.5c-0.1-2.8-0.4-5.6-0.6-8.5-0.3-5.7-1.1-11.3-1.8-17-1.8-11.4-4-22.9-7.4-34.1-1.5-5.7-3.6-11.3-5.4-16.9-1.1-2.8-2.2-5.5-3.3-8.3l-1.6-4.1-1.9-4.1c-9.6-21.9-22.7-42.7-38.4-61.6q-3.1-3.5-6.1-7c-2-2.3-4.2-4.5-6.4-6.8-1-1.1-2.1-2.2-3.2-3.3l-3.3-3.2-3.4-3.2c-1.1-1.1-2.3-2.2-3.5-3.2q-3.5-3-7-6.1c-1.2-1-2.4-2-3.7-2.9l-3.6-2.9c-1.3-1-2.5-2-3.7-2.9l-3.9-2.7-3.8-2.8c-1.3-0.9-2.6-1.8-3.9-2.6q-4-2.6-7.9-5.1c-1.3-0.9-2.7-1.6-4.1-2.4l-4.1-2.4c-1.4-0.7-2.7-1.5-4.1-2.3l-4.2-2.2-4.2-2.1-2.1-1.1c-0.7-0.3-1.5-0.6-2.2-1q-4.3-1.9-8.6-3.9c-2.9-1.2-5.9-2.3-8.9-3.5-1.4-0.6-2.9-1.2-4.4-1.7l-4.5-1.6-4.5-1.5-2.3-0.8c-0.7-0.2-1.5-0.4-2.3-0.6l-9.1-2.6c-1.5-0.5-3.1-0.8-4.7-1.2l-4.6-1-4.7-1.1-4.7-0.8-4.7-0.9c-1.5-0.2-3.1-0.6-4.7-0.7l-9.5-1.2c-0.8-0.1-1.5-0.3-2.3-0.3l-2.4-0.2-4.8-0.4-4.7-0.3c-1.6-0.2-3.2-0.1-4.8-0.2l-9.6-0.2-9.6 0.2c-1.6 0.1-3.2 0-4.7 0.2l-4.8 0.3-4.8 0.4-2.4 0.2c-0.8 0-1.5 0.2-2.3 0.3l-9.5 1.2c-1.6 0.1-3.2 0.5-4.7 0.7l-4.7 0.9-4.7 0.8-4.7 1.1-4.6 1c-1.6 0.4-3.2 0.7-4.7 1.2l-9.1 2.6c-0.8 0.2-1.6 0.4-2.3 0.6l-2.3 0.8-4.5 1.5-4.5 1.6c-1.5 0.5-3 1.1-4.4 1.7-3 1.2-6 2.3-8.9 3.5q-4.3 2-8.6 3.9c-0.7 0.4-1.5 0.7-2.2 1l-2.1 1.1-4.2 2.1-4.2 2.2c-1.4 0.8-2.7 1.6-4.1 2.3l-4.1 2.4c-1.4 0.8-2.8 1.5-4.1 2.4q-3.9 2.5-7.9 5.1c-1.3 0.8-2.6 1.7-3.9 2.6l-3.8 2.8-3.9 2.7c-1.2 0.9-2.4 1.9-3.7 2.9l-3.6 2.9c-1.3 0.9-2.5 1.9-3.7 2.9q-3.5 3.1-7 6.1c-1.2 1-2.4 2.1-3.5 3.2l-3.4 3.2-3.3 3.2c-1.1 1.1-2.2 2.2-3.2 3.3-2.2 2.3-4.4 4.5-6.4 6.8q-3 3.5-6.1 7c-15.7 18.9-28.8 39.7-38.4 61.6l-1.9 4.1-1.6 4.1c-1.1 2.8-2.2 5.5-3.2 8.3-1.9 5.6-4 11.2-5.5 16.9-3.3 11.2-5.6 22.7-7.4 34.1-0.7 5.7-1.5 11.3-1.8 17-0.2 2.9-0.5 5.7-0.6 8.5q-0.1 4.3-0.3 8.5c0 1.4 0 2.8 0 4.2q0 2.1 0.1 4.2 0.1 4.2 0.2 8.3c0.1 2.8 0.4 5.6 0.6 8.3 0.2 2.8 0.3 5.5 0.7 8.2q0.6 4.1 1.1 8.2l0.2 2 0.4 2q0.4 2 0.7 4 0.4 2 0.7 4c0.3 1.3 0.5 2.6 0.8 3.9q0.9 4 1.8 7.9c0.3 1.3 0.6 2.6 0.9 3.8q0.5 2 1.1 3.9 1.1 3.8 2.1 7.6c0.8 2.5 1.7 4.9 2.5 7.4q0.6 1.8 1.3 3.7c0.2 0.6 0.4 1.2 0.6 1.8l0.7 1.8c7.3 19.3 16.6 37.1 27.2 53 10.6 16 22.7 30 35.2 42.1 12.5 12.2 25.6 22.5 38.6 31 13 8.5 25.8 15.4 38.2 20.8 3 1.4 6.2 2.5 9.1 3.7 3.1 1.2 6 2.4 8.9 3.3q4.4 1.5 8.6 2.9 4.2 1.3 8.2 2.4c21.6 6 39.2 8 51.1 8.7q2.2 0.2 4.2 0.4c1.3 0.1 2.5 0.1 3.7 0.1q3.4 0.1 5.7 0.1c3 0.1 4.6 0.2 4.7 0.2 0.1 0 1.7-0.1 4.7-0.2z"/>
			</g>
			<g id="&lt;Group&gt;">
				<g id="&lt;Group&gt;">
					<g id="&lt;Group&gt;">
					</g>
				</g>
				<g id="&lt;Group&gt;">
					<g id="&lt;Group&gt;">
					</g>
				</g>
				<g id="&lt;Group&gt;">
					<g id="&lt;Group&gt;">
					</g>
				</g>
				<g id="&lt;Group&gt;">
				</g>
				<g id="&lt;Group&gt;">
					<g id="&lt;Group&gt;">
					</g>
				</g>
				<g id="&lt;Group&gt;">
				</g>
				<g id="&lt;Group&gt;">
					<g id="&lt;Group&gt;">
					</g>
				</g>
				<g id="&lt;Group&gt;">
					<g id="&lt;Group&gt;">
					</g>
				</g>
				<g id="&lt;Group&gt;">
				</g>
				<g id="&lt;Group&gt;">
				</g>
				<g id="&lt;Group&gt;">
					<g id="&lt;Group&gt;">
					</g>
				</g>
				<g id="&lt;Group&gt;">
					<g id="&lt;Group&gt;">
					</g>
				</g>
				<g id="&lt;Group&gt;">
					<g id="&lt;Group&gt;">
					</g>
				</g>
				<g id="&lt;Group&gt;">
					<g id="&lt;Group&gt;">
					</g>
				</g>
				<g id="&lt;Group&gt;">
					<g id="&lt;Group&gt;">
					</g>
				</g>
			</g>
			<g id="&lt;Group&gt;">
				<path id="&lt;Path&gt;" class="s0" d="m524.6 229.7c0 0-0.4 1.9-1.1 4.8-0.4 1.4-0.8 3.1-1.3 4.9-0.4 1.8-0.9 3.7-1.5 5.6-0.5 1.9-0.8 3.9-1.4 5.6-0.6 1.7-1.5 3.2-2.2 4.5q-0.6 1-1.2 1.7-0.6 0.8-1 1.3c-0.6 0.7-1.1 1.1-1.1 1.1l-0.4-0.2c0 0-0.1-0.5-0.1-1.4q0-0.7 0.1-1.7 0-0.9 0.2-2c0.2-1.5 0.5-3.2 1.2-5 0.6-1.7 1.7-3.4 2.5-5.2 0.8-1.8 1.6-3.6 2.4-5.2 0.8-1.7 1.6-3.2 2.2-4.6 1.3-2.6 2.3-4.4 2.3-4.4z"/>
				<path id="&lt;Path&gt;" class="s0" d="m406.3 218.7c0 0 0.6 1.9 1.4 4.8 0.4 1.4 0.9 3 1.4 4.8 0.5 1.8 1 3.7 1.5 5.6 0.5 1.9 1.2 3.8 1.5 5.6 0.4 1.8 0.4 3.5 0.4 5q-0.1 1.2-0.2 2.1-0.1 0.9-0.2 1.6c-0.2 0.9-0.4 1.5-0.4 1.5h-0.4c0 0-0.4-0.4-0.9-1.2q-0.3-0.6-0.7-1.4-0.5-0.9-0.9-1.9c-0.5-1.4-1.1-3.1-1.4-4.9-0.3-1.8-0.2-3.8-0.5-5.7-0.1-2-0.3-4-0.5-5.8-0.1-1.8-0.2-3.6-0.3-5-0.2-3-0.3-5-0.3-5z"/>
				<path id="&lt;Path&gt;" class="s0" d="m367.6 228.9c0 0 0.9 1.8 2.2 4.4 0.7 1.3 1.4 2.9 2.2 4.6 0.8 1.6 1.6 3.4 2.5 5.2 0.7 1.8 1.8 3.5 2.4 5.2 0.7 1.7 1 3.5 1.2 4.9q0.2 1.2 0.3 2.1 0 0.9 0 1.6c0 0.9-0.1 1.5-0.1 1.5l-0.4 0.2c0 0-0.5-0.4-1.1-1.1q-0.4-0.5-1-1.3-0.5-0.7-1.1-1.7c-0.8-1.3-1.7-2.8-2.3-4.5-0.6-1.8-0.9-3.7-1.4-5.6-0.5-1.9-1.1-3.8-1.5-5.6-0.5-1.8-0.9-3.5-1.3-4.9-0.7-2.9-1.1-4.8-1.1-4.8z"/>
				<path id="&lt;Path&gt;" class="s0" d="m331.2 245.6c0 0 1.2 1.6 3 4 0.9 1.2 1.9 2.6 3 4.1 1 1.5 2.1 3.1 3.3 4.7 1.1 1.6 2.4 3.2 3.3 4.7 1 1.6 1.6 3.2 2.1 4.7q0.3 1 0.5 1.9 0.2 1 0.4 1.6c0.1 1 0.1 1.5 0.1 1.5l-0.4 0.2c0 0-0.5-0.2-1.2-0.8q-0.5-0.5-1.2-1.1-0.7-0.6-1.4-1.5c-1-1.1-2.1-2.5-3-4.1-0.9-1.6-1.6-3.5-2.4-5.2-0.9-1.8-1.7-3.6-2.5-5.3-0.8-1.6-1.5-3.2-2.1-4.6-1.1-2.7-1.9-4.5-1.9-4.5z"/>
				<path id="&lt;Path&gt;" class="s0" d="m298.3 268.4c0 0 1.5 1.3 3.6 3.4 1.1 1 2.4 2.2 3.7 3.5 1.3 1.3 2.7 2.7 4.1 4.1 1.3 1.4 2.9 2.7 4.1 4.1 1.2 1.4 2.1 2.8 2.8 4.2q0.5 1 0.9 1.8 0.4 0.9 0.6 1.5c0.3 0.9 0.4 1.5 0.4 1.5l-0.4 0.3c0 0-0.5-0.2-1.3-0.7q-0.6-0.3-1.4-0.8-0.8-0.6-1.6-1.3c-1.2-0.9-2.5-2-3.7-3.5-1.2-1.4-2.1-3.1-3.3-4.7-1.1-1.6-2.3-3.2-3.3-4.8-1.1-1.5-2-2.9-2.8-4.1-1.7-2.5-2.7-4.2-2.7-4.2z"/>
				<path id="&lt;Path&gt;" class="s0" d="m269.9 296.6c0 0 1.7 1 4.1 2.7 1.3 0.8 2.7 1.7 4.2 2.8 1.6 1 3.1 2.2 4.8 3.3 1.5 1.2 3.3 2.1 4.7 3.3 1.4 1.2 2.6 2.5 3.5 3.7q0.7 0.8 1.2 1.6 0.6 0.8 0.9 1.4c0.4 0.8 0.6 1.3 0.6 1.3l-0.3 0.4c0 0-0.5-0.1-1.4-0.4q-0.6-0.2-1.5-0.6-0.9-0.4-1.9-0.9c-1.3-0.7-2.8-1.6-4.2-2.8-1.4-1.2-2.6-2.8-4-4.1-1.4-1.4-2.8-2.8-4.1-4.1-1.3-1.3-2.5-2.6-3.5-3.7-2.1-2.1-3.4-3.6-3.4-3.6z"/>
				<path id="&lt;Path&gt;" class="s0" d="m246.8 329.2c0 0 1.8 0.8 4.5 2 1.4 0.6 3 1.3 4.6 2 1.7 0.8 3.5 1.6 5.3 2.5 1.7 0.8 3.6 1.5 5.2 2.4 1.6 0.9 3 2 4.1 3q0.9 0.7 1.5 1.4 0.7 0.7 1.1 1.2c0.6 0.7 0.9 1.2 0.9 1.2l-0.3 0.4c0 0-0.5 0-1.4-0.1q-0.7-0.1-1.6-0.4-1-0.2-2-0.5c-1.5-0.5-3.1-1.1-4.7-2.1-1.5-0.9-3-2.2-4.7-3.3-1.6-1.1-3.2-2.2-4.7-3.3-1.5-1.1-2.9-2.1-4.1-3-2.4-1.7-4-3-4-3z"/>
				<path id="&lt;Path&gt;" class="s0" d="m229.7 365.4c0 0 1.9 0.4 4.8 1.1 1.4 0.4 3.1 0.8 4.9 1.3 1.8 0.4 3.7 0.9 5.6 1.5 1.9 0.5 3.9 0.8 5.6 1.4 1.7 0.6 3.2 1.5 4.5 2.2q1 0.6 1.7 1.2 0.8 0.6 1.3 1c0.7 0.6 1.1 1 1.1 1l-0.2 0.5c0 0-0.5 0.1-1.4 0.1q-0.7 0-1.7-0.1-0.9 0-2-0.2c-1.5-0.2-3.2-0.5-5-1.2-1.7-0.6-3.4-1.7-5.2-2.5-1.8-0.8-3.6-1.6-5.2-2.4-1.7-0.8-3.2-1.6-4.6-2.2-2.6-1.3-4.4-2.3-4.4-2.3z"/>
				<path id="&lt;Path&gt;" class="s0" d="m219.1 404c0 0 2 0.1 5 0.3 1.5 0.1 3.2 0.2 5 0.3 1.9 0.2 3.8 0.4 5.8 0.5 1.9 0.3 3.9 0.2 5.7 0.5 1.9 0.3 3.5 0.9 4.9 1.4q1.1 0.4 1.9 0.9 0.8 0.4 1.4 0.7c0.8 0.5 1.2 0.9 1.2 0.9v0.4c0 0-0.6 0.2-1.5 0.4q-0.6 0.1-1.6 0.2-0.9 0.1-2 0.2c-1.5 0-3.3 0-5.1-0.4-1.8-0.3-3.7-1-5.6-1.5-1.9-0.5-3.8-1-5.6-1.5-1.7-0.5-3.4-1-4.8-1.4-2.9-0.8-4.7-1.4-4.7-1.4z"/>
				<path id="&lt;Path&gt;" class="s0" d="m218.7 483.7c0 0 1.9-0.6 4.8-1.4 1.4-0.4 3-0.9 4.8-1.4 1.8-0.5 3.7-1 5.6-1.5 1.9-0.5 3.8-1.2 5.6-1.5 1.8-0.4 3.5-0.4 5-0.4q1.2 0.1 2.1 0.2 0.9 0.1 1.6 0.2c0.9 0.2 1.5 0.4 1.5 0.4v0.4c0 0-0.4 0.4-1.2 0.9q-0.6 0.3-1.4 0.7-0.9 0.5-1.9 0.9c-1.4 0.5-3.1 1.1-4.9 1.4-1.8 0.3-3.8 0.2-5.7 0.5-2 0.1-4 0.3-5.8 0.5-1.8 0.1-3.6 0.2-5 0.3-3 0.2-5 0.3-5 0.3z"/>
				<path id="&lt;Path&gt;" class="s0" d="m218.7 483.7c0 0 1.9-0.6 4.8-1.4 1.4-0.4 3-0.9 4.8-1.4 1.8-0.5 3.7-1 5.6-1.5 1.9-0.5 3.8-1.2 5.6-1.5 1.8-0.4 3.5-0.4 5-0.4q1.2 0.1 2.1 0.2 0.9 0.1 1.6 0.2c0.9 0.2 1.5 0.4 1.5 0.4v0.4c0 0-0.4 0.4-1.2 0.9q-0.6 0.3-1.4 0.7-0.9 0.5-1.9 0.9c-1.4 0.5-3.1 1.1-4.9 1.4-1.8 0.3-3.8 0.2-5.7 0.5-2 0.1-4 0.3-5.8 0.5-1.8 0.1-3.6 0.2-5 0.3-3 0.2-5 0.3-5 0.3z"/>
				<path id="&lt;Path&gt;" class="s0" d="m228.9 522.4c0 0 1.8-0.9 4.4-2.2 1.3-0.7 2.9-1.4 4.6-2.2 1.6-0.8 3.4-1.6 5.2-2.5 1.8-0.8 3.5-1.8 5.2-2.4 1.7-0.7 3.5-1 4.9-1.3q1.2-0.1 2.1-0.2 0.9 0 1.6 0c0.9 0 1.5 0.1 1.5 0.1l0.2 0.4c0 0-0.4 0.5-1.1 1.1q-0.5 0.4-1.3 1-0.7 0.5-1.7 1.1c-1.3 0.8-2.8 1.7-4.5 2.3-1.8 0.6-3.7 0.9-5.6 1.4-1.9 0.5-3.8 1.1-5.6 1.5-1.8 0.5-3.5 0.9-4.9 1.3-2.9 0.7-4.8 1.1-4.8 1.1z"/>
				<path id="&lt;Path&gt;" class="s0" d="m245.6 558.8c0 0 1.6-1.2 4-3 1.2-0.9 2.6-1.9 4.1-3 1.5-1 3.1-2.1 4.7-3.3 1.6-1.1 3.2-2.4 4.7-3.3 1.6-1 3.2-1.6 4.7-2.1q1-0.3 1.9-0.5 1-0.3 1.6-0.4c1-0.1 1.5-0.1 1.5-0.1l0.2 0.4c0 0-0.2 0.5-0.8 1.2q-0.5 0.5-1.1 1.2-0.6 0.7-1.5 1.4c-1.1 1-2.5 2.1-4.1 3-1.6 0.9-3.5 1.6-5.2 2.4-1.8 0.9-3.6 1.7-5.3 2.5-1.7 0.8-3.2 1.5-4.6 2.1-2.7 1.1-4.5 1.9-4.5 1.9z"/>
				<path id="&lt;Path&gt;" class="s0" d="m268.4 591.7c0 0 1.3-1.5 3.4-3.6 1-1.1 2.2-2.4 3.5-3.7 1.3-1.3 2.7-2.7 4.1-4.1 1.4-1.3 2.7-2.9 4.1-4.1 1.4-1.2 2.8-2.1 4.2-2.8q1-0.5 1.8-0.9 0.9-0.4 1.5-0.6c0.9-0.3 1.5-0.4 1.5-0.4l0.3 0.3c0 0-0.2 0.6-0.7 1.4q-0.3 0.6-0.8 1.4-0.6 0.8-1.3 1.6c-0.9 1.2-2 2.5-3.5 3.7-1.4 1.2-3.1 2.1-4.7 3.3-1.6 1.1-3.2 2.3-4.8 3.3-1.5 1.1-2.9 2-4.1 2.8-2.5 1.7-4.2 2.7-4.2 2.7z"/>
				<path id="&lt;Path&gt;" class="s0" d="m296.6 620.1c0 0 1-1.7 2.7-4.1 0.8-1.3 1.7-2.7 2.8-4.2 1-1.6 2.2-3.1 3.3-4.8 1.2-1.5 2.1-3.3 3.3-4.7 1.2-1.4 2.5-2.6 3.7-3.5q0.8-0.7 1.6-1.2 0.8-0.6 1.4-0.9c0.8-0.4 1.3-0.6 1.3-0.6l0.4 0.3c0 0-0.1 0.5-0.4 1.4q-0.2 0.6-0.6 1.5-0.4 0.9-0.9 1.9c-0.7 1.3-1.6 2.8-2.8 4.2-1.2 1.4-2.8 2.6-4.1 4-1.4 1.4-2.8 2.8-4.1 4.1-1.3 1.3-2.6 2.5-3.7 3.5-2.1 2.1-3.6 3.4-3.6 3.4z"/>
				<path id="&lt;Path&gt;" class="s0" d="m329.2 643.2c0 0 0.8-1.8 2-4.5 0.6-1.4 1.3-3 2-4.6 0.8-1.7 1.6-3.5 2.5-5.3 0.8-1.7 1.5-3.6 2.4-5.2 0.9-1.6 2-3 3-4.1q0.7-0.9 1.4-1.5 0.7-0.7 1.2-1.1c0.7-0.6 1.2-0.9 1.2-0.9l0.4 0.3c0 0 0 0.5-0.1 1.4q-0.1 0.7-0.4 1.6-0.2 1-0.5 2c-0.5 1.4-1.1 3.1-2.1 4.7-0.9 1.5-2.2 3-3.3 4.7-1.1 1.6-2.2 3.2-3.3 4.7-1.1 1.5-2.1 2.9-3 4.1-1.7 2.4-3 3.9-3 3.9z"/>
				<path id="&lt;Path&gt;" class="s0" d="m365.4 660.3c0 0 0.4-1.9 1.1-4.8 0.4-1.4 0.8-3.1 1.3-4.9 0.4-1.8 0.9-3.7 1.5-5.6 0.5-1.9 0.8-3.9 1.4-5.6 0.6-1.7 1.5-3.2 2.2-4.5q0.6-1 1.2-1.7 0.6-0.8 1-1.3c0.6-0.7 1-1.1 1-1.1l0.5 0.2c0 0 0.1 0.5 0.1 1.4q0 0.7-0.1 1.7 0 0.9-0.2 2c-0.2 1.5-0.5 3.2-1.2 4.9-0.6 1.8-1.7 3.5-2.5 5.3-0.8 1.8-1.6 3.6-2.4 5.2-0.8 1.7-1.6 3.2-2.2 4.6-1.3 2.6-2.3 4.4-2.3 4.4z"/>
				<path id="&lt;Path&gt;" class="s0" d="m404 670.9c0 0 0.1-2 0.3-5 0.1-1.5 0.2-3.2 0.3-5 0.2-1.9 0.4-3.8 0.5-5.8 0.3-1.9 0.2-3.9 0.5-5.7 0.3-1.9 0.9-3.5 1.4-4.9q0.4-1.1 0.9-1.9 0.4-0.8 0.7-1.4c0.5-0.8 0.9-1.3 0.9-1.3l0.4 0.1c0 0 0.2 0.6 0.4 1.5q0.1 0.6 0.2 1.6 0.1 0.9 0.2 2c0 1.5 0 3.3-0.4 5.1-0.3 1.8-1 3.7-1.5 5.6-0.5 1.9-1 3.8-1.5 5.6-0.5 1.7-1 3.4-1.4 4.8-0.8 2.9-1.4 4.7-1.4 4.7z"/>
				<path id="&lt;Path&gt;" class="s0" d="m483.7 671.3c0 0-0.6-1.9-1.4-4.8-0.4-1.4-0.9-3-1.4-4.8-0.5-1.8-1-3.7-1.5-5.6-0.5-1.9-1.2-3.8-1.5-5.6-0.4-1.8-0.4-3.5-0.4-5q0.1-1.2 0.2-2.1 0.1-0.9 0.2-1.6c0.2-0.9 0.4-1.5 0.4-1.5h0.4c0 0 0.4 0.4 0.9 1.2q0.3 0.6 0.7 1.4 0.5 0.9 0.9 1.9c0.5 1.4 1.1 3.1 1.4 4.9 0.3 1.8 0.2 3.8 0.4 5.7 0.2 2 0.4 4 0.6 5.8 0.1 1.8 0.2 3.6 0.3 5 0.2 3 0.3 5 0.3 5z"/>
				<path id="&lt;Path&gt;" class="s0" d="m522.4 661.1c0 0-0.9-1.8-2.2-4.4-0.7-1.3-1.4-2.9-2.2-4.6-0.8-1.6-1.6-3.4-2.5-5.2-0.8-1.8-1.8-3.5-2.5-5.2-0.6-1.7-0.9-3.5-1.2-4.9q-0.1-1.2-0.2-2.1 0-0.9 0-1.6c0-0.9 0.1-1.5 0.1-1.5l0.4-0.2c0 0 0.5 0.4 1.1 1.1q0.4 0.5 1 1.3 0.5 0.7 1.1 1.7c0.8 1.3 1.7 2.8 2.3 4.5 0.6 1.8 0.9 3.7 1.4 5.6 0.5 1.9 1.1 3.8 1.5 5.6 0.5 1.8 0.9 3.5 1.3 4.9 0.7 2.9 1.1 4.8 1.1 4.8z"/>
				<path id="&lt;Path&gt;" class="s0" d="m558.8 644.4c0 0-1.2-1.6-3-4-0.9-1.2-1.9-2.6-3-4.1-1-1.5-2.1-3.1-3.3-4.7-1.1-1.6-2.4-3.2-3.3-4.7-1-1.6-1.6-3.2-2.1-4.7q-0.3-1-0.5-1.9-0.3-1-0.4-1.7c-0.1-0.9-0.1-1.4-0.1-1.4l0.4-0.2c0 0 0.5 0.2 1.2 0.8q0.5 0.5 1.2 1.1 0.7 0.6 1.4 1.5c1 1.1 2.1 2.5 3 4.1 0.9 1.6 1.6 3.5 2.4 5.2 0.9 1.8 1.7 3.6 2.5 5.3 0.8 1.6 1.5 3.2 2 4.6 1.2 2.7 2 4.5 2 4.5z"/>
				<path id="&lt;Path&gt;" class="s0" d="m591.7 621.6c0 0-1.5-1.3-3.6-3.4-1.1-1-2.4-2.2-3.7-3.5-1.3-1.3-2.7-2.7-4.1-4.1-1.3-1.4-2.9-2.7-4.1-4.1-1.2-1.4-2.1-2.8-2.8-4.2q-0.5-1-0.9-1.8-0.4-0.9-0.6-1.5c-0.3-0.9-0.4-1.5-0.4-1.5l0.3-0.3c0 0 0.6 0.2 1.4 0.7q0.6 0.3 1.4 0.8 0.8 0.6 1.6 1.3c1.2 0.9 2.5 2 3.7 3.4 1.2 1.5 2.1 3.2 3.3 4.8 1.1 1.6 2.3 3.2 3.3 4.8 1.1 1.5 2 2.9 2.8 4.1 1.7 2.5 2.7 4.2 2.7 4.2z"/>
				<path id="&lt;Path&gt;" class="s0" d="m620.1 593.4c0 0-1.7-1-4.1-2.7-1.3-0.8-2.7-1.7-4.2-2.8-1.6-1-3.2-2.2-4.8-3.3-1.5-1.2-3.3-2.1-4.7-3.3-1.4-1.2-2.6-2.5-3.5-3.7q-0.7-0.8-1.2-1.6-0.6-0.8-0.9-1.4c-0.4-0.8-0.6-1.3-0.6-1.3l0.3-0.4c0 0 0.5 0.1 1.4 0.4q0.6 0.2 1.5 0.6 0.9 0.4 1.9 0.9c1.3 0.7 2.8 1.6 4.2 2.8 1.3 1.2 2.6 2.8 4 4.1 1.4 1.4 2.8 2.8 4.1 4.1 1.3 1.3 2.5 2.6 3.5 3.7 2.1 2.1 3.4 3.6 3.4 3.6z"/>
				<path id="&lt;Path&gt;" class="s0" d="m643.2 560.8c0 0-1.8-0.8-4.5-2-1.4-0.6-3-1.3-4.6-2-1.7-0.8-3.5-1.6-5.3-2.5-1.7-0.8-3.6-1.5-5.3-2.4-1.5-0.9-2.9-2-4-3q-0.9-0.7-1.5-1.4-0.7-0.7-1.1-1.2c-0.6-0.8-0.9-1.2-0.9-1.2l0.3-0.4c0 0 0.5 0 1.4 0.1q0.7 0.1 1.6 0.4 1 0.2 2 0.5c1.4 0.5 3.1 1.1 4.7 2.1 1.5 0.9 3 2.2 4.7 3.3 1.6 1.1 3.2 2.2 4.7 3.3 1.5 1.1 2.9 2.1 4.1 3 2.4 1.7 3.9 3 3.9 3z"/>
				<path id="&lt;Path&gt;" class="s0" d="m660.3 524.6c0 0-1.9-0.4-4.8-1.1-1.4-0.4-3.1-0.8-4.9-1.3-1.8-0.4-3.7-0.9-5.6-1.5-1.9-0.5-3.9-0.8-5.6-1.4-1.7-0.6-3.3-1.5-4.5-2.2q-1-0.6-1.7-1.2-0.8-0.6-1.3-1c-0.7-0.6-1.1-1.1-1.1-1.1l0.2-0.4c0 0 0.5-0.1 1.4-0.1q0.7 0 1.7 0.1 0.9 0 2 0.2c1.5 0.2 3.2 0.5 4.9 1.2 1.8 0.6 3.5 1.7 5.3 2.5 1.8 0.8 3.6 1.6 5.2 2.4 1.7 0.8 3.2 1.6 4.6 2.2 2.6 1.3 4.4 2.3 4.4 2.3z"/>
				<path id="&lt;Path&gt;" class="s0" d="m670.9 486c0 0-2-0.1-5-0.3-1.5-0.1-3.2-0.2-5-0.3-1.9-0.2-3.8-0.4-5.8-0.5-1.9-0.3-3.9-0.2-5.8-0.5-1.8-0.3-3.4-0.9-4.8-1.4q-1.1-0.4-1.9-0.9-0.8-0.4-1.4-0.7c-0.8-0.5-1.3-0.9-1.3-0.9l0.1-0.4c0 0 0.6-0.2 1.5-0.4q0.6-0.1 1.6-0.2 0.9-0.1 2-0.2c1.5 0 3.3 0 5.1 0.4 1.8 0.3 3.7 1 5.6 1.5 1.9 0.5 3.8 1 5.6 1.5 1.7 0.5 3.4 1 4.8 1.4 2.9 0.8 4.7 1.4 4.7 1.4z"/>
				<path id="&lt;Path&gt;" class="s0" d="m671.3 406.3c0 0-1.9 0.6-4.8 1.4-1.4 0.4-3 0.9-4.8 1.4-1.8 0.5-3.7 1-5.6 1.5-1.9 0.5-3.8 1.2-5.6 1.5-1.8 0.4-3.5 0.4-5 0.4q-1.2-0.1-2.1-0.2-0.9-0.1-1.6-0.2c-0.9-0.2-1.5-0.4-1.5-0.4v-0.4c0 0 0.4-0.4 1.2-0.9q0.6-0.3 1.4-0.7 0.9-0.5 1.9-0.9c1.4-0.5 3.1-1.1 4.9-1.4 1.8-0.3 3.8-0.2 5.7-0.5 2-0.1 4-0.3 5.8-0.5 1.8-0.1 3.6-0.2 5-0.3 3-0.2 5-0.3 5-0.3z"/>
				<path id="&lt;Path&gt;" class="s0" d="m661.1 367.6c0 0-1.8 0.9-4.4 2.2-1.3 0.7-2.9 1.4-4.6 2.2-1.6 0.8-3.4 1.6-5.2 2.5-1.8 0.7-3.5 1.8-5.2 2.4-1.8 0.7-3.5 1-4.9 1.2q-1.2 0.2-2.1 0.3-0.9 0-1.6 0c-1 0-1.5-0.1-1.5-0.1l-0.2-0.4c0 0 0.4-0.5 1.1-1.1q0.5-0.4 1.3-1 0.7-0.5 1.7-1.1c1.3-0.8 2.8-1.7 4.5-2.3 1.8-0.6 3.7-0.9 5.6-1.4 1.9-0.5 3.8-1.1 5.6-1.5 1.8-0.5 3.5-0.9 4.9-1.3 2.9-0.7 4.8-1.1 4.8-1.1z"/>
				<path id="&lt;Path&gt;" class="s0" d="m644.4 331.2c0 0-1.6 1.2-4 3-1.2 0.9-2.6 1.9-4.1 3-1.5 1-3.1 2.1-4.7 3.3-1.7 1.1-3.2 2.4-4.7 3.3-1.6 1-3.2 1.6-4.7 2.1q-1 0.3-2 0.5-0.9 0.3-1.6 0.4c-0.9 0.1-1.4 0.1-1.4 0.1l-0.3-0.4c0 0 0.3-0.5 0.9-1.2q0.5-0.5 1.1-1.2 0.6-0.7 1.5-1.4c1.1-1 2.5-2.1 4.1-3 1.6-0.9 3.5-1.6 5.2-2.4 1.8-0.9 3.6-1.7 5.3-2.5 1.6-0.8 3.2-1.5 4.6-2.1 2.7-1.1 4.5-1.9 4.5-1.9z"/>
				<path id="&lt;Path&gt;" class="s0" d="m621.6 298.3c0 0-1.3 1.5-3.4 3.6-1 1.1-2.2 2.4-3.5 3.7-1.3 1.3-2.7 2.7-4.1 4.1-1.4 1.3-2.7 2.9-4.1 4.1-1.4 1.2-2.9 2.1-4.2 2.8q-1 0.5-1.8 0.9-0.9 0.4-1.6 0.6c-0.8 0.3-1.4 0.4-1.4 0.4l-0.3-0.4c0 0 0.2-0.5 0.7-1.3q0.3-0.6 0.8-1.4 0.5-0.8 1.3-1.6c0.9-1.2 2-2.5 3.4-3.7 1.5-1.2 3.2-2.1 4.8-3.3 1.6-1.1 3.2-2.3 4.8-3.3 1.5-1.1 2.9-2 4.1-2.8 2.5-1.7 4.2-2.7 4.2-2.7z"/>
				<path id="&lt;Path&gt;" class="s0" d="m593.4 269.9c0 0-1 1.7-2.7 4.1-0.8 1.3-1.7 2.7-2.8 4.2-1 1.6-2.2 3.1-3.3 4.8-1.2 1.5-2.1 3.3-3.3 4.7-1.2 1.4-2.5 2.6-3.7 3.5q-0.8 0.7-1.6 1.2-0.8 0.6-1.4 0.9c-0.8 0.4-1.4 0.6-1.4 0.6l-0.3-0.3c0 0 0.1-0.5 0.4-1.4q0.2-0.6 0.6-1.5 0.4-0.9 0.9-1.9c0.7-1.3 1.6-2.8 2.8-4.2 1.2-1.4 2.8-2.6 4.1-4 1.4-1.4 2.8-2.8 4.1-4.1 1.3-1.3 2.6-2.5 3.7-3.5 2.1-2.1 3.6-3.4 3.6-3.4z"/>
				<path id="&lt;Path&gt;" class="s0" d="m560.8 246.8c0 0-0.8 1.8-2 4.5-0.6 1.4-1.3 3-2 4.6-0.8 1.7-1.6 3.5-2.5 5.3-0.8 1.7-1.5 3.6-2.4 5.2-0.9 1.6-2 3-3 4.1q-0.7 0.9-1.4 1.5-0.7 0.7-1.2 1.1c-0.8 0.6-1.2 0.9-1.2 0.9l-0.4-0.3c0 0 0-0.5 0.1-1.4q0.1-0.7 0.3-1.6 0.3-1 0.6-2c0.5-1.5 1.1-3.1 2.1-4.7 0.9-1.5 2.2-3 3.3-4.7 1.1-1.6 2.2-3.2 3.3-4.7 1.1-1.5 2.1-2.9 3-4.1 1.7-2.4 3-4 3-4z"/>
				<path id="&lt;Path&gt;" class="s0" d="m524.6 229.7c0 0-0.4 1.9-1.1 4.8-0.4 1.4-0.8 3.1-1.3 4.9-0.4 1.8-0.9 3.7-1.5 5.6-0.5 1.9-0.8 3.9-1.4 5.6-0.6 1.7-1.5 3.2-2.2 4.5q-0.6 1-1.2 1.7-0.6 0.8-1 1.3c-0.6 0.7-1.1 1.1-1.1 1.1l-0.4-0.2c0 0-0.1-0.5-0.1-1.4q0-0.7 0.1-1.7 0-0.9 0.2-2c0.2-1.5 0.5-3.2 1.2-5 0.6-1.7 1.7-3.4 2.5-5.2 0.8-1.8 1.6-3.6 2.4-5.2 0.8-1.7 1.6-3.2 2.2-4.6 1.3-2.6 2.3-4.4 2.3-4.4z"/>
				<path id="&lt;Path&gt;" class="s0" d="m524.6 229.7c0 0-0.4 1.9-1.1 4.8-0.4 1.4-0.8 3.1-1.3 4.9-0.4 1.8-0.9 3.7-1.5 5.6-0.5 1.9-0.8 3.9-1.4 5.6-0.6 1.7-1.5 3.2-2.2 4.5q-0.6 1-1.2 1.7-0.6 0.8-1 1.3c-0.6 0.7-1.1 1.1-1.1 1.1l-0.4-0.2c0 0-0.1-0.5-0.1-1.4q0-0.7 0.1-1.7 0-0.9 0.2-2c0.2-1.5 0.5-3.2 1.2-5 0.6-1.7 1.7-3.4 2.5-5.2 0.8-1.8 1.6-3.6 2.4-5.2 0.8-1.7 1.6-3.2 2.2-4.6 1.3-2.6 2.3-4.4 2.3-4.4z"/>
				<path id="&lt;Path&gt;" class="s0" d="m486 219.1c0 0-0.1 2-0.3 5-0.1 1.4-0.2 3.2-0.3 5-0.2 1.9-0.4 3.8-0.5 5.8-0.3 1.9-0.2 3.9-0.5 5.7-0.3 1.9-0.9 3.5-1.4 4.9q-0.4 1.1-0.9 1.9-0.4 0.8-0.7 1.4c-0.5 0.8-0.9 1.3-0.9 1.3l-0.4-0.1c0 0-0.2-0.6-0.4-1.5q-0.1-0.6-0.2-1.6-0.1-0.9-0.2-2c0-1.5 0-3.3 0.4-5.1 0.3-1.8 1-3.7 1.5-5.6 0.5-1.9 1-3.8 1.5-5.6 0.5-1.7 1-3.4 1.4-4.8 0.8-2.9 1.4-4.7 1.4-4.7z"/>
				<path id="&lt;Path&gt;" class="s0" d="m524.6 229.7c0 0-0.4 1.9-1.1 4.8-0.4 1.4-0.8 3.1-1.3 4.9-0.4 1.8-0.9 3.7-1.5 5.6-0.5 1.9-0.8 3.9-1.4 5.6-0.6 1.7-1.5 3.2-2.2 4.5q-0.6 1-1.2 1.7-0.6 0.8-1 1.3c-0.6 0.7-1.1 1.1-1.1 1.1l-0.4-0.2c0 0-0.1-0.5-0.1-1.4q0-0.7 0.1-1.7 0-0.9 0.2-2c0.2-1.5 0.5-3.2 1.2-5 0.6-1.7 1.7-3.4 2.5-5.2 0.8-1.8 1.6-3.6 2.4-5.2 0.8-1.7 1.6-3.2 2.2-4.6 1.3-2.6 2.3-4.4 2.3-4.4z"/>
			</g>
			<g id="&lt;Group&gt;">
				<g id="&lt;Group&gt;">
					<g id="&lt;Group&gt;">
						<path id="&lt;Path&gt;" class="s1" d="m416 169.2c0 2.9-2.4 5.3-5.3 5.3-3 0-5.3-2.4-5.3-5.3 0-3 2.3-5.4 5.3-5.4 2.9 0 5.3 2.4 5.3 5.4z"/>
						<g id="&lt;Group&gt;">
							<path id="&lt;Compound Path&gt;" fill-rule="evenodd" class="s0" d="m410.7 174.9c-3.2 0-5.8-2.6-5.8-5.7 0-3.2 2.6-5.8 5.8-5.8 3.2 0 5.8 2.6 5.8 5.8 0 3.1-2.6 5.7-5.8 5.7zm0-10.6c-2.7 0-4.9 2.2-4.9 4.9 0 2.6 2.2 4.8 4.9 4.8 2.7 0 4.8-2.2 4.8-4.8 0-2.7-2.1-4.9-4.8-4.9z"/>
						</g>
					</g>
					<g id="&lt;Group&gt;">
						<path id="&lt;Path&gt;" class="s1" d="m343.5 188.4c0 3-2.4 5.3-5.4 5.3-2.9 0-5.3-2.3-5.3-5.3 0-2.9 2.4-5.3 5.3-5.3 3 0 5.4 2.4 5.4 5.3z"/>
						<g id="&lt;Group&gt;">
							<path id="&lt;Compound Path&gt;" fill-rule="evenodd" class="s0" d="m338.1 194.2c-3.1 0-5.7-2.6-5.7-5.8 0-3.2 2.6-5.8 5.7-5.8 3.2 0 5.8 2.6 5.8 5.8 0 3.2-2.6 5.8-5.8 5.8zm0-10.6c-2.6 0-4.8 2.1-4.8 4.8 0 2.7 2.2 4.9 4.8 4.9 2.7 0 4.9-2.2 4.9-4.9 0-2.7-2.2-4.8-4.9-4.8z"/>
						</g>
					</g>
					<g id="&lt;Group&gt;">
						<path id="&lt;Path&gt;" class="s1" d="m381.7 177.7c0 4.3-3.5 7.8-7.8 7.8-4.3 0-7.8-3.5-7.8-7.8 0-4.4 3.5-7.9 7.8-7.9 4.3 0 7.8 3.5 7.8 7.9z"/>
						<g id="&lt;Group&gt;">
							<path id="&lt;Compound Path&gt;" fill-rule="evenodd" class="s0" d="m373.9 185.9c-4.5 0-8.2-3.7-8.2-8.2 0-4.6 3.7-8.3 8.2-8.3 4.6 0 8.3 3.7 8.3 8.3 0 4.5-3.7 8.2-8.3 8.2zm0-15.6c-4 0-7.3 3.3-7.3 7.4 0 4 3.3 7.3 7.3 7.3 4.1 0 7.4-3.3 7.4-7.3 0-4.1-3.3-7.4-7.4-7.4z"/>
						</g>
					</g>
					<g id="&lt;Group&gt;">
						<path id="&lt;Path&gt;" class="s1" d="m312.6 204.1c0 4.3-3.5 7.8-7.8 7.8-4.3 0-7.8-3.5-7.8-7.8 0-4.3 3.5-7.8 7.8-7.8 4.3 0 7.8 3.5 7.8 7.8z"/>
						<g id="&lt;Group&gt;">
							<path id="&lt;Compound Path&gt;" fill-rule="evenodd" class="s0" d="m304.8 212.4c-4.5 0-8.2-3.8-8.2-8.3 0-4.6 3.7-8.3 8.2-8.3 4.6 0 8.3 3.7 8.3 8.3 0 4.5-3.7 8.3-8.3 8.3zm0-15.7c-4 0-7.3 3.3-7.3 7.4 0 4 3.3 7.3 7.3 7.3 4.1 0 7.4-3.3 7.4-7.3 0-4.1-3.3-7.4-7.4-7.4z"/>
						</g>
					</g>
					<g id="&lt;Group&gt;">
						<path id="&lt;Path&gt;" class="s1" d="m210.5 306.2c0 4.3-3.5 7.8-7.8 7.8-4.3 0-7.8-3.5-7.8-7.8 0-4.3 3.5-7.8 7.8-7.8 4.3 0 7.8 3.5 7.8 7.8z"/>
						<g id="&lt;Group&gt;">
							<path id="&lt;Compound Path&gt;" fill-rule="evenodd" class="s0" d="m202.7 314.5c-4.6 0-8.3-3.7-8.3-8.3 0-4.5 3.7-8.2 8.3-8.2 4.5 0 8.2 3.7 8.2 8.2 0 4.6-3.7 8.3-8.2 8.3zm0-15.6c-4.1 0-7.4 3.3-7.4 7.3 0 4.1 3.3 7.4 7.4 7.4 4 0 7.3-3.3 7.3-7.4 0-4-3.3-7.3-7.3-7.3z"/>
						</g>
					</g>
					<g id="&lt;Group&gt;">
						<path id="&lt;Path&gt;" class="s1" d="m210.5 588c0 4.4-3.5 7.8-7.8 7.8-4.3 0-7.8-3.4-7.8-7.8 0-4.3 3.5-7.8 7.8-7.8 4.3 0 7.8 3.5 7.8 7.8z"/>
						<g id="&lt;Group&gt;">
							<path id="&lt;Compound Path&gt;" fill-rule="evenodd" class="s0" d="m202.7 596.3c-4.6 0-8.3-3.7-8.3-8.3 0-4.5 3.7-8.2 8.3-8.2 4.5 0 8.2 3.7 8.2 8.2 0 4.6-3.7 8.3-8.2 8.3zm0-15.6c-4.1 0-7.4 3.3-7.4 7.3 0 4.1 3.3 7.4 7.4 7.4 4 0 7.3-3.3 7.3-7.4 0-4-3.3-7.3-7.3-7.3z"/>
						</g>
					</g>
					<g id="&lt;Group&gt;">
						<path id="&lt;Path&gt;" class="s1" d="m312.6 688.5c0 4.3-3.5 7.8-7.8 7.8-4.3 0-7.8-3.5-7.8-7.8 0-4.4 3.5-7.9 7.8-7.9 4.3 0 7.8 3.5 7.8 7.9z"/>
						<g id="&lt;Group&gt;">
							<path id="&lt;Compound Path&gt;" fill-rule="evenodd" class="s0" d="m304.8 696.7c-4.5 0-8.2-3.7-8.2-8.2 0-4.6 3.7-8.3 8.2-8.3 4.6 0 8.3 3.7 8.3 8.3 0 4.5-3.7 8.2-8.3 8.2zm0-15.6c-4 0-7.3 3.3-7.3 7.4 0 4 3.3 7.3 7.3 7.3 4.1 0 7.4-3.3 7.4-7.3 0-4.1-3.3-7.4-7.4-7.4z"/>
						</g>
					</g>
					<g id="&lt;Group&gt;">
						<path id="&lt;Path&gt;" class="s1" d="m593 688.5c0 4.3-3.5 7.8-7.8 7.8-4.3 0-7.8-3.5-7.8-7.8 0-4.4 3.5-7.9 7.8-7.9 4.3 0 7.8 3.5 7.8 7.9z"/>
						<g id="&lt;Group&gt;">
							<path id="&lt;Compound Path&gt;" fill-rule="evenodd" class="s0" d="m585.2 696.7c-4.6 0-8.3-3.7-8.3-8.2 0-4.6 3.7-8.3 8.3-8.3 4.5 0 8.2 3.7 8.2 8.3 0 4.5-3.7 8.2-8.2 8.2zm0-15.6c-4.1 0-7.4 3.3-7.4 7.4 0 4 3.3 7.3 7.4 7.3 4 0 7.3-3.3 7.3-7.3 0-4.1-3.3-7.4-7.3-7.4z"/>
						</g>
					</g>
					<g id="&lt;Group&gt;">
						<path id="&lt;Path&gt;" class="s1" d="m695.7 588c0 4.4-3.5 7.8-7.8 7.8-4.3 0-7.8-3.4-7.8-7.8 0-4.3 3.5-7.8 7.8-7.8 4.3 0 7.8 3.5 7.8 7.8z"/>
						<g id="&lt;Group&gt;">
							<path id="&lt;Compound Path&gt;" fill-rule="evenodd" class="s0" d="m687.9 596.3c-4.5 0-8.3-3.7-8.3-8.3 0-4.5 3.8-8.2 8.3-8.2 4.6 0 8.3 3.7 8.3 8.2 0 4.6-3.7 8.3-8.3 8.3zm0-15.6c-4 0-7.3 3.3-7.3 7.3 0 4.1 3.3 7.4 7.3 7.4 4.1 0 7.4-3.3 7.4-7.4 0-4-3.3-7.3-7.4-7.3z"/>
						</g>
					</g>
					<g id="&lt;Group&gt;">
						<path id="&lt;Path&gt;" class="s1" d="m695.7 306.2c0 4.3-3.5 7.8-7.8 7.8-4.3 0-7.8-3.5-7.8-7.8 0-4.3 3.5-7.8 7.8-7.8 4.3 0 7.8 3.5 7.8 7.8z"/>
						<g id="&lt;Group&gt;">
							<path id="&lt;Compound Path&gt;" fill-rule="evenodd" class="s0" d="m687.9 314.5c-4.5 0-8.3-3.7-8.3-8.3 0-4.5 3.8-8.2 8.3-8.2 4.6 0 8.3 3.7 8.3 8.2 0 4.6-3.7 8.3-8.3 8.3zm0-15.6c-4 0-7.3 3.3-7.3 7.3 0 4.1 3.3 7.4 7.3 7.4 4.1 0 7.4-3.3 7.4-7.4 0-4-3.3-7.3-7.4-7.3z"/>
						</g>
					</g>
					<g id="&lt;Group&gt;">
						<path id="&lt;Path&gt;" class="s1" d="m593.4 204.1c0 4.3-3.5 7.8-7.8 7.8-4.3 0-7.8-3.5-7.8-7.8 0-4.3 3.5-7.8 7.8-7.8 4.3 0 7.8 3.5 7.8 7.8z"/>
						<g id="&lt;Group&gt;">
							<path id="&lt;Compound Path&gt;" fill-rule="evenodd" class="s0" d="m585.6 212.4c-4.6 0-8.3-3.8-8.3-8.3 0-4.6 3.7-8.3 8.3-8.3 4.5 0 8.3 3.7 8.3 8.3 0 4.5-3.8 8.3-8.3 8.3zm0-15.7c-4.1 0-7.4 3.3-7.4 7.4 0 4 3.3 7.3 7.4 7.3 4 0 7.3-3.3 7.3-7.3 0-4.1-3.3-7.4-7.3-7.4z"/>
						</g>
					</g>
					<g id="&lt;Group&gt;">
						<path id="&lt;Path&gt;" class="s1" d="m282 220.6c1.4 2.6 0.6 5.8-2 7.3-2.5 1.5-5.8 0.6-7.3-2-1.4-2.5-0.5-5.8 2-7.2 2.5-1.5 5.8-0.6 7.3 1.9z"/>
						<g id="&lt;Group&gt;">
							<path id="&lt;Compound Path&gt;" fill-rule="evenodd" class="s0" d="m277.4 229.1c-2.1 0-4-1.1-5.1-2.9-1.5-2.8-0.6-6.3 2.2-7.9 0.8-0.5 1.8-0.8 2.9-0.8 2 0 3.9 1.1 5 2.9 0.7 1.3 0.9 2.9 0.5 4.4-0.4 1.5-1.3 2.7-2.7 3.5-0.8 0.5-1.8 0.8-2.8 0.8zm0-10.7c-0.9 0-1.7 0.2-2.5 0.7-2.3 1.3-3.1 4.3-1.8 6.6 0.9 1.5 2.5 2.4 4.3 2.4 0.8 0 1.6-0.2 2.4-0.6 1.1-0.7 1.9-1.7 2.3-3 0.3-1.2 0.1-2.5-0.5-3.7-0.9-1.5-2.5-2.4-4.2-2.4z"/>
						</g>
					</g>
					<g id="&lt;Group&gt;">
						<path id="&lt;Path&gt;" class="s1" d="m191.6 332.2c2.6 1.5 3.4 4.7 2 7.3-1.5 2.5-4.8 3.4-7.3 1.9-2.6-1.5-3.4-4.7-2-7.3 1.5-2.5 4.8-3.4 7.3-1.9z"/>
						<g id="&lt;Group&gt;">
							<path id="&lt;Compound Path&gt;" fill-rule="evenodd" class="s0" d="m189 342.6c-1.1 0-2.1-0.3-2.9-0.8-1.4-0.8-2.3-2-2.7-3.5-0.4-1.5-0.2-3.1 0.5-4.4 1.1-1.8 3-2.9 5.1-2.9 1 0 2 0.3 2.8 0.8 2.8 1.6 3.8 5.1 2.2 7.9-1.1 1.8-3 2.9-5 2.9zm0-10.7c-1.8 0-3.4 1-4.3 2.5-0.6 1.1-0.8 2.4-0.4 3.7 0.3 1.2 1.1 2.3 2.2 2.9 0.8 0.4 1.6 0.7 2.5 0.7 1.7 0 3.3-1 4.2-2.5 1.3-2.3 0.5-5.3-1.8-6.6-0.8-0.4-1.6-0.7-2.4-0.7z"/>
						</g>
					</g>
					<g id="&lt;Group&gt;">
						<path id="&lt;Path&gt;" class="s1" d="m172 404.6c2.6 1.5 3.4 4.8 2 7.3-1.5 2.5-4.8 3.4-7.3 2-2.5-1.5-3.4-4.8-1.9-7.3 1.4-2.6 4.7-3.4 7.2-2z"/>
						<g id="&lt;Group&gt;">
							<path id="&lt;Compound Path&gt;" fill-rule="evenodd" class="s0" d="m169.4 415c-1 0-2-0.2-2.9-0.7-2.8-1.6-3.7-5.2-2.1-7.9 1-1.8 2.9-2.9 5-2.9 1 0 2 0.2 2.9 0.7 2.7 1.6 3.7 5.2 2.1 7.9-1.1 1.8-3 2.9-5 2.9zm0-10.6c-1.8 0-3.4 0.9-4.2 2.4-1.4 2.3-0.6 5.3 1.7 6.7 0.8 0.4 1.6 0.6 2.5 0.6 1.7 0 3.3-0.9 4.2-2.4 1.3-2.3 0.5-5.3-1.8-6.7-0.7-0.4-1.6-0.6-2.4-0.6z"/>
						</g>
					</g>
					<g id="&lt;Group&gt;">
						<path id="&lt;Path&gt;" class="s1" d="m181.8 366.1c3.8 2.2 5.1 6.9 2.9 10.7-2.2 3.7-6.9 5-10.7 2.8-3.7-2.1-5-6.9-2.8-10.6 2.1-3.8 6.9-5 10.6-2.9z"/>
						<g id="&lt;Group&gt;">
							<path id="&lt;Compound Path&gt;" fill-rule="evenodd" class="s0" d="m177.9 381.1c-1.4 0-2.8-0.3-4.1-1.1-3.9-2.2-5.3-7.3-3-11.3 1.5-2.5 4.2-4.1 7.1-4.1 1.5 0 2.9 0.4 4.2 1.1 1.9 1.1 3.3 2.9 3.8 5 0.6 2.2 0.3 4.4-0.8 6.3-1.5 2.6-4.2 4.1-7.2 4.1zm0-15.6c-2.6 0-5 1.4-6.3 3.7-2 3.5-0.8 8 2.7 10 1.1 0.7 2.4 1 3.6 1 2.7 0 5.1-1.4 6.4-3.7 1-1.7 1.2-3.6 0.7-5.5-0.5-1.9-1.7-3.5-3.4-4.5-1.1-0.6-2.4-1-3.7-1z"/>
						</g>
					</g>
					<g id="&lt;Group&gt;">
						<path id="&lt;Path&gt;" class="s1" d="m169.2 474c2.9 0 5.3 2.4 5.3 5.3 0 3-2.4 5.3-5.3 5.3-3 0-5.4-2.3-5.4-5.3 0-2.9 2.4-5.3 5.4-5.3z"/>
						<g id="&lt;Group&gt;">
							<path id="&lt;Compound Path&gt;" fill-rule="evenodd" class="s0" d="m169.2 485.1c-1.6 0-3-0.6-4.1-1.7-1.1-1.1-1.7-2.5-1.7-4.1 0-3.2 2.6-5.8 5.8-5.8 3.1 0 5.7 2.6 5.7 5.8 0 1.6-0.6 3-1.7 4.1-1 1.1-2.5 1.7-4 1.7zm0-10.6c-2.7 0-4.9 2.1-4.9 4.8 0 1.3 0.5 2.5 1.4 3.5 0.9 0.9 2.2 1.4 3.5 1.4 1.3 0 2.5-0.5 3.4-1.4 0.9-1 1.4-2.2 1.4-3.5 0-2.7-2.2-4.8-4.8-4.8z"/>
						</g>
					</g>
					<g id="&lt;Group&gt;">
						<path id="&lt;Path&gt;" class="s1" d="m188.4 546.5c3 0 5.3 2.4 5.3 5.3 0 3-2.3 5.4-5.3 5.4-2.9 0-5.3-2.4-5.3-5.4 0-2.9 2.4-5.3 5.3-5.3z"/>
						<g id="&lt;Group&gt;">
							<path id="&lt;Compound Path&gt;" fill-rule="evenodd" class="s0" d="m188.4 557.6c-3.2 0-5.8-2.6-5.8-5.8 0-3.1 2.6-5.7 5.8-5.7 3.2 0 5.8 2.6 5.8 5.7 0 3.2-2.6 5.8-5.8 5.8zm0-10.6c-2.7 0-4.8 2.2-4.8 4.8 0 2.7 2.1 4.9 4.8 4.9 2.7 0 4.9-2.2 4.9-4.9 0-2.6-2.2-4.8-4.9-4.8z"/>
						</g>
					</g>
					<g id="&lt;Group&gt;">
						<path id="&lt;Path&gt;" class="s1" d="m177.7 508.3c4.3 0 7.8 3.5 7.8 7.8 0 4.3-3.5 7.8-7.8 7.8-4.4 0-7.9-3.5-7.9-7.8 0-4.3 3.5-7.8 7.9-7.8z"/>
						<g id="&lt;Group&gt;">
							<path id="&lt;Compound Path&gt;" fill-rule="evenodd" class="s0" d="m177.7 524.3c-2.3 0-4.3-0.8-5.9-2.4-1.6-1.6-2.4-3.6-2.4-5.8 0-4.6 3.7-8.3 8.3-8.3 2.2 0 4.2 0.9 5.8 2.4 1.6 1.6 2.4 3.7 2.4 5.9 0 2.2-0.8 4.2-2.4 5.8-1.6 1.6-3.6 2.4-5.8 2.4zm0-15.6c-4.1 0-7.4 3.3-7.4 7.4 0 1.9 0.8 3.8 2.2 5.2 1.3 1.3 3.2 2.1 5.2 2.1 1.9 0 3.8-0.8 5.1-2.1 1.4-1.4 2.2-3.3 2.2-5.2 0-2-0.8-3.8-2.2-5.2-1.3-1.4-3.2-2.2-5.1-2.2z"/>
						</g>
					</g>
					<g id="&lt;Group&gt;">
						<path id="&lt;Path&gt;" class="s1" d="m220.6 608c2.6-1.4 5.8-0.6 7.3 2 1.5 2.5 0.6 5.8-2 7.3-2.5 1.4-5.8 0.5-7.2-2-1.5-2.5-0.6-5.8 1.9-7.3z"/>
						<g id="&lt;Group&gt;">
							<path id="&lt;Compound Path&gt;" fill-rule="evenodd" class="s0" d="m223.3 618.4c-2.1 0-4-1.1-5-2.9-1.6-2.7-0.7-6.3 2.1-7.9 0.9-0.5 1.9-0.7 2.9-0.7 2 0 4 1.1 5 2.9 0.8 1.3 1 2.8 0.6 4.3-0.4 1.5-1.4 2.8-2.7 3.6-0.9 0.5-1.9 0.7-2.9 0.7zm0-10.6c-0.9 0-1.7 0.2-2.5 0.6-2.3 1.4-3.1 4.4-1.7 6.7 0.8 1.5 2.4 2.4 4.2 2.4 0.8 0 1.7-0.2 2.4-0.6 1.1-0.7 1.9-1.7 2.3-3 0.3-1.3 0.1-2.6-0.5-3.7-0.9-1.5-2.5-2.4-4.2-2.4z"/>
						</g>
					</g>
					<g id="&lt;Group&gt;">
						<path id="&lt;Path&gt;" class="s1" d="m332.2 698.4c1.5-2.6 4.7-3.4 7.3-2 2.5 1.5 3.4 4.8 1.9 7.3-1.5 2.6-4.7 3.4-7.3 2-2.5-1.5-3.4-4.8-1.9-7.3z"/>
						<g id="&lt;Group&gt;">
							<path id="&lt;Compound Path&gt;" fill-rule="evenodd" class="s0" d="m336.8 706.8c-1 0-2-0.2-2.9-0.7-2.8-1.6-3.7-5.2-2.1-7.9 1-1.8 2.9-2.9 5-2.9 1 0 2 0.2 2.9 0.7 1.3 0.8 2.3 2.1 2.7 3.5 0.4 1.5 0.2 3.1-0.6 4.4-1 1.8-2.9 2.9-5 2.9zm0-10.6c-1.7 0-3.3 0.9-4.2 2.4-1.3 2.3-0.6 5.3 1.8 6.7 0.7 0.4 1.5 0.6 2.4 0.6 1.7 0 3.3-0.9 4.2-2.4 0.7-1.2 0.8-2.5 0.5-3.7-0.3-1.3-1.1-2.3-2.3-3-0.7-0.4-1.5-0.6-2.4-0.6z"/>
						</g>
					</g>
					<g id="&lt;Group&gt;">
						<path id="&lt;Path&gt;" class="s1" d="m404.6 718c1.5-2.6 4.8-3.4 7.3-2 2.5 1.5 3.4 4.7 2 7.3-1.5 2.5-4.8 3.4-7.3 1.9-2.6-1.4-3.4-4.7-2-7.2z"/>
						<g id="&lt;Group&gt;">
							<path id="&lt;Compound Path&gt;" fill-rule="evenodd" class="s0" d="m409.2 726.4c-1 0-2-0.2-2.9-0.8-1.3-0.7-2.2-2-2.6-3.5-0.4-1.5-0.2-3 0.5-4.4 1.1-1.7 3-2.9 5-2.9 1.1 0 2.1 0.3 2.9 0.8 2.8 1.6 3.7 5.2 2.2 7.9-1.1 1.8-3 2.9-5.1 2.9zm0-10.6c-1.7 0-3.3 0.9-4.2 2.4-0.6 1.1-0.8 2.4-0.5 3.7 0.4 1.2 1.2 2.3 2.3 2.9 0.7 0.5 1.6 0.7 2.4 0.7 1.8 0 3.4-0.9 4.3-2.4 1.3-2.4 0.5-5.3-1.8-6.7-0.8-0.4-1.6-0.6-2.5-0.6z"/>
						</g>
					</g>
					<g id="&lt;Group&gt;">
						<path id="&lt;Path&gt;" class="s1" d="m366.1 708.2c2.2-3.8 6.9-5.1 10.7-2.9 3.7 2.2 5 6.9 2.8 10.7-2.1 3.7-6.9 5-10.6 2.8-3.8-2.1-5-6.9-2.9-10.6z"/>
						<g id="&lt;Group&gt;">
							<path id="&lt;Compound Path&gt;" fill-rule="evenodd" class="s0" d="m372.9 720.3c-1.5 0-2.9-0.4-4.2-1.1-1.9-1.1-3.2-2.9-3.8-5-0.6-2.1-0.3-4.4 0.8-6.3 1.5-2.5 4.2-4.1 7.2-4.1 1.4 0 2.8 0.4 4.1 1.1 1.9 1.1 3.3 2.9 3.9 5 0.5 2.2 0.2 4.4-0.9 6.3-1.4 2.5-4.2 4.1-7.1 4.1zm0-15.6c-2.6 0-5.1 1.4-6.4 3.7-1 1.7-1.2 3.7-0.7 5.6 0.5 1.9 1.7 3.4 3.4 4.4 1.1 0.7 2.4 1 3.7 1 2.6 0 5-1.4 6.3-3.7 1-1.7 1.3-3.6 0.8-5.5-0.5-1.9-1.8-3.5-3.5-4.5-1.1-0.6-2.3-1-3.6-1z"/>
						</g>
					</g>
					<g id="&lt;Group&gt;">
						<path id="&lt;Path&gt;" class="s1" d="m474 720.8c0-2.9 2.4-5.3 5.3-5.3 3 0 5.3 2.4 5.3 5.3 0 3-2.3 5.4-5.3 5.4-2.9 0-5.3-2.4-5.3-5.4z"/>
						<g id="&lt;Group&gt;">
							<path id="&lt;Compound Path&gt;" fill-rule="evenodd" class="s0" d="m479.3 726.6c-3.2 0-5.8-2.6-5.8-5.8 0-3.1 2.6-5.7 5.8-5.7 1.6 0 3 0.6 4.1 1.6 1.1 1.1 1.7 2.6 1.7 4.1 0 3.2-2.6 5.8-5.8 5.8zm0-10.6c-2.7 0-4.8 2.2-4.8 4.8 0 2.7 2.1 4.9 4.8 4.9 2.7 0 4.9-2.2 4.9-4.9 0-1.3-0.5-2.5-1.4-3.4-1-0.9-2.2-1.4-3.5-1.4z"/>
						</g>
					</g>
					<g id="&lt;Group&gt;">
						<path id="&lt;Path&gt;" class="s1" d="m546.5 701.6c0-3 2.4-5.3 5.3-5.3 3 0 5.4 2.3 5.4 5.3 0 2.9-2.4 5.3-5.4 5.3-2.9 0-5.3-2.4-5.3-5.3z"/>
						<g id="&lt;Group&gt;">
							<path id="&lt;Compound Path&gt;" fill-rule="evenodd" class="s0" d="m551.8 707.4c-1.5 0-3-0.6-4-1.7-1.1-1.1-1.7-2.6-1.7-4.1 0-3.2 2.6-5.8 5.7-5.8 3.2 0 5.8 2.6 5.8 5.8 0 3.2-2.6 5.8-5.8 5.8zm0-10.7c-2.6 0-4.8 2.2-4.8 4.9 0 1.3 0.5 2.5 1.4 3.4 0.9 0.9 2.1 1.4 3.4 1.4 2.7 0 4.9-2.1 4.9-4.8 0-2.7-2.2-4.9-4.9-4.9z"/>
						</g>
					</g>
					<g id="&lt;Group&gt;">
						<path id="&lt;Path&gt;" class="s1" d="m508.3 712.3c0-4.3 3.5-7.8 7.8-7.8 4.3 0 7.8 3.5 7.8 7.8 0 4.4-3.5 7.9-7.8 7.9-4.3 0-7.8-3.5-7.8-7.9z"/>
						<g id="&lt;Group&gt;">
							<path id="&lt;Compound Path&gt;" fill-rule="evenodd" class="s0" d="m516.1 720.6c-4.6 0-8.3-3.7-8.3-8.3 0-4.5 3.7-8.2 8.3-8.2 4.5 0 8.2 3.7 8.2 8.2 0 4.6-3.7 8.3-8.2 8.3zm0-15.6c-4.1 0-7.4 3.3-7.4 7.3 0 4.1 3.3 7.4 7.4 7.4 4 0 7.3-3.3 7.3-7.4 0-4-3.3-7.3-7.3-7.3z"/>
						</g>
					</g>
					<g id="&lt;Group&gt;">
						<g id="&lt;Group&gt;">
							<path id="&lt;Path&gt;" class="s1" d="m608 669.4c-1.4-2.6-0.6-5.8 2-7.3 2.5-1.5 5.8-0.6 7.2 2 1.5 2.5 0.6 5.8-1.9 7.2-2.5 1.5-5.8 0.6-7.3-1.9z"/>
							<g id="&lt;Group&gt;">
								<path id="&lt;Compound Path&gt;" fill-rule="evenodd" class="s0" d="m612.6 672.5c-2 0-3.9-1.1-5-2.9-0.7-1.3-0.9-2.9-0.5-4.4 0.4-1.5 1.3-2.7 2.6-3.5 0.9-0.5 1.9-0.8 2.9-0.8 2.1 0 4 1.1 5 2.9 0.8 1.4 1 2.9 0.6 4.4-0.4 1.5-1.3 2.8-2.7 3.5-0.8 0.5-1.8 0.8-2.9 0.8zm0-10.6c-0.8 0-1.7 0.2-2.4 0.6-1.1 0.7-1.9 1.7-2.3 3-0.3 1.2-0.1 2.5 0.5 3.7 0.9 1.5 2.5 2.4 4.2 2.4 0.9 0 1.7-0.2 2.5-0.7 1.1-0.6 1.9-1.7 2.2-2.9 0.4-1.3 0.2-2.6-0.5-3.7-0.8-1.5-2.4-2.4-4.2-2.4z"/>
							</g>
						</g>
						<g id="&lt;Group&gt;">
							<path id="&lt;Path&gt;" class="s1" d="m661.2 616.4c-1.5-2.5-0.6-5.8 2-7.2 2.5-1.5 5.8-0.6 7.2 1.9 1.5 2.6 0.6 5.8-1.9 7.3-2.6 1.5-5.8 0.6-7.3-2z"/>
							<g id="&lt;Group&gt;">
								<path id="&lt;Compound Path&gt;" fill-rule="evenodd" class="s0" d="m665.8 619.6c-2 0-4-1.1-5-2.9-0.8-1.4-1-2.9-0.6-4.4 0.4-1.5 1.4-2.8 2.7-3.5 0.9-0.5 1.9-0.8 2.9-0.8 2.1 0 4 1.1 5 2.9 0.8 1.3 1 2.9 0.6 4.4-0.4 1.5-1.3 2.7-2.7 3.5-0.9 0.5-1.9 0.8-2.9 0.8zm0-10.7c-0.8 0-1.7 0.2-2.4 0.7-1.1 0.6-1.9 1.7-2.3 2.9-0.3 1.3-0.1 2.6 0.5 3.7 0.9 1.5 2.5 2.4 4.2 2.4 0.9 0 1.7-0.2 2.5-0.6 1.1-0.7 1.9-1.7 2.2-3 0.4-1.2 0.2-2.5-0.5-3.6-0.8-1.5-2.4-2.5-4.2-2.5z"/>
							</g>
						</g>
					</g>
					<g id="&lt;Group&gt;">
						<path id="&lt;Path&gt;" class="s1" d="m608 669.4c-1.4-2.6-0.6-5.8 2-7.3 2.5-1.5 5.8-0.6 7.2 2 1.5 2.5 0.6 5.8-1.9 7.2-2.5 1.5-5.8 0.6-7.3-1.9z"/>
						<g id="&lt;Group&gt;">
							<path id="&lt;Compound Path&gt;" fill-rule="evenodd" class="s0" d="m612.6 672.5c-2 0-3.9-1.1-5-2.9-0.7-1.3-0.9-2.9-0.5-4.4 0.4-1.5 1.3-2.7 2.6-3.5 0.9-0.5 1.9-0.8 2.9-0.8 2.1 0 4 1.1 5 2.9 0.8 1.4 1 2.9 0.6 4.4-0.4 1.5-1.3 2.8-2.7 3.5-0.8 0.5-1.8 0.8-2.9 0.8zm0-10.6c-0.8 0-1.7 0.2-2.4 0.6-1.1 0.7-1.9 1.7-2.3 3-0.3 1.2-0.1 2.5 0.5 3.7 0.9 1.5 2.5 2.4 4.2 2.4 0.9 0 1.7-0.2 2.5-0.7 1.1-0.6 1.9-1.7 2.2-2.9 0.4-1.3 0.2-2.6-0.5-3.7-0.8-1.5-2.4-2.4-4.2-2.4z"/>
						</g>
					</g>
					<g id="&lt;Group&gt;">
						<path id="&lt;Path&gt;" class="s1" d="m661.2 616.4c-1.5-2.5-0.6-5.8 2-7.2 2.5-1.5 5.8-0.6 7.2 1.9 1.5 2.6 0.6 5.8-1.9 7.3-2.6 1.5-5.8 0.6-7.3-2z"/>
						<g id="&lt;Group&gt;">
							<path id="&lt;Compound Path&gt;" fill-rule="evenodd" class="s0" d="m665.8 619.6c-2 0-4-1.1-5-2.9-0.8-1.4-1-2.9-0.6-4.4 0.4-1.5 1.4-2.8 2.7-3.5 0.9-0.5 1.9-0.8 2.9-0.8 2.1 0 4 1.1 5 2.9 0.8 1.3 1 2.9 0.6 4.4-0.4 1.5-1.3 2.7-2.7 3.5-0.9 0.5-1.9 0.8-2.9 0.8zm0-10.7c-0.8 0-1.7 0.2-2.4 0.7-1.1 0.6-1.9 1.7-2.3 2.9-0.3 1.3-0.1 2.6 0.5 3.7 0.9 1.5 2.5 2.4 4.2 2.4 0.9 0 1.7-0.2 2.5-0.6 1.1-0.7 1.9-1.7 2.2-3 0.4-1.2 0.2-2.5-0.5-3.6-0.8-1.5-2.4-2.5-4.2-2.5z"/>
						</g>
					</g>
					<g id="&lt;Group&gt;">
						<path id="&lt;Path&gt;" class="s1" d="m698.4 557.8c-2.6-1.5-3.4-4.7-2-7.3 1.5-2.5 4.8-3.4 7.3-1.9 2.6 1.5 3.4 4.7 2 7.3-1.5 2.5-4.8 3.4-7.3 1.9z"/>
						<g id="&lt;Group&gt;">
							<path id="&lt;Compound Path&gt;" fill-rule="evenodd" class="s0" d="m701 559c-1 0-2-0.3-2.8-0.8-2.8-1.6-3.8-5.1-2.2-7.9 1.1-1.8 3-2.9 5-2.9 1.1 0 2.1 0.3 2.9 0.8 1.4 0.8 2.3 2 2.7 3.5 0.4 1.5 0.2 3.1-0.5 4.4-1.1 1.8-3 2.9-5.1 2.9zm0-10.7c-1.7 0-3.3 1-4.2 2.5-1.3 2.3-0.5 5.3 1.8 6.6 0.8 0.4 1.6 0.7 2.4 0.7 1.8 0 3.4-1 4.3-2.5 0.6-1.1 0.8-2.4 0.4-3.7-0.3-1.2-1.1-2.3-2.2-2.9-0.8-0.4-1.6-0.7-2.5-0.7z"/>
						</g>
					</g>
					<g id="&lt;Group&gt;">
						<path id="&lt;Path&gt;" class="s1" d="m718 485.4c-2.6-1.5-3.4-4.8-2-7.3 1.5-2.5 4.7-3.4 7.3-2 2.5 1.5 3.4 4.8 1.9 7.3-1.4 2.6-4.7 3.4-7.2 2z"/>
						<g id="&lt;Group&gt;">
							<path id="&lt;Compound Path&gt;" fill-rule="evenodd" class="s0" d="m720.6 486.5c-1 0-2-0.2-2.9-0.7-1.3-0.8-2.3-2.1-2.7-3.5-0.4-1.5-0.1-3.1 0.6-4.4 1.1-1.8 3-2.9 5-2.9 1 0 2 0.2 2.9 0.8 1.4 0.7 2.3 2 2.7 3.5 0.4 1.5 0.2 3-0.6 4.4-1 1.7-2.9 2.8-5 2.8zm0-10.6c-1.7 0-3.3 0.9-4.2 2.4-0.6 1.2-0.8 2.5-0.5 3.7 0.4 1.3 1.2 2.3 2.3 3 0.7 0.4 1.6 0.6 2.4 0.6 1.8 0 3.4-0.9 4.2-2.4 0.7-1.1 0.9-2.4 0.5-3.7-0.3-1.3-1.1-2.3-2.2-3-0.8-0.4-1.6-0.6-2.5-0.6z"/>
						</g>
					</g>
					<g id="&lt;Group&gt;">
						<path id="&lt;Path&gt;" class="s1" d="m708.2 523.9c-3.8-2.2-5.1-6.9-2.9-10.7 2.2-3.7 6.9-5 10.7-2.8 3.7 2.1 5 6.9 2.8 10.6-2.1 3.8-6.9 5-10.6 2.9z"/>
						<g id="&lt;Group&gt;">
							<path id="&lt;Compound Path&gt;" fill-rule="evenodd" class="s0" d="m712.1 525.4c-1.5 0-2.9-0.4-4.2-1.1-1.9-1.1-3.3-2.9-3.8-5-0.6-2.2-0.3-4.4 0.8-6.3 1.5-2.6 4.2-4.1 7.2-4.1 1.4 0 2.8 0.3 4.1 1.1 1.9 1.1 3.3 2.9 3.8 5 0.6 2.1 0.3 4.3-0.8 6.3-1.5 2.5-4.2 4.1-7.1 4.1zm0-15.6c-2.7 0-5.1 1.4-6.4 3.7-1 1.7-1.2 3.6-0.7 5.5 0.5 1.9 1.7 3.5 3.4 4.5 1.1 0.6 2.4 1 3.7 1 2.6 0 5-1.4 6.3-3.7 1-1.7 1.3-3.7 0.8-5.6-0.6-1.9-1.8-3.5-3.5-4.4-1.1-0.7-2.4-1-3.6-1z"/>
						</g>
					</g>
					<g id="&lt;Group&gt;">
						<path id="&lt;Path&gt;" class="s1" d="m720.8 416c-2.9 0-5.3-2.4-5.3-5.3 0-3 2.4-5.3 5.3-5.3 3 0 5.4 2.3 5.4 5.3 0 2.9-2.4 5.3-5.4 5.3z"/>
						<g id="&lt;Group&gt;">
							<path id="&lt;Compound Path&gt;" fill-rule="evenodd" class="s0" d="m720.8 416.5c-3.1 0-5.7-2.6-5.7-5.8 0-3.2 2.5-5.8 5.7-5.8 1.6 0 3 0.6 4.1 1.7 1.1 1.1 1.7 2.5 1.7 4.1 0 3.2-2.6 5.8-5.8 5.8zm0-10.7c-2.6 0-4.8 2.2-4.8 4.9 0 2.7 2.2 4.8 4.8 4.8 2.7 0 4.9-2.1 4.9-4.8 0-1.3-0.5-2.5-1.4-3.5-0.9-0.9-2.2-1.4-3.5-1.4z"/>
						</g>
					</g>
					<g id="&lt;Group&gt;">
						<path id="&lt;Path&gt;" class="s1" d="m701.6 343.5c-3 0-5.3-2.4-5.3-5.4 0-2.9 2.3-5.3 5.3-5.3 2.9 0 5.3 2.4 5.3 5.4 0 2.9-2.4 5.3-5.3 5.3z"/>
						<g id="&lt;Group&gt;">
							<path id="&lt;Compound Path&gt;" fill-rule="evenodd" class="s0" d="m701.6 343.9c-3.2 0-5.8-2.6-5.8-5.7 0-3.2 2.6-5.8 5.8-5.8 3.2 0 5.8 2.6 5.8 5.8 0 1.5-0.6 2.9-1.7 4-1.1 1.1-2.6 1.7-4.1 1.7zm0-10.6c-2.7 0-4.9 2.2-4.9 4.9 0 2.6 2.2 4.8 4.9 4.8 1.3 0 2.5-0.5 3.4-1.4 0.9-0.9 1.4-2.2 1.4-3.4 0-2.7-2.1-4.9-4.8-4.9z"/>
						</g>
					</g>
					<g id="&lt;Group&gt;">
						<path id="&lt;Path&gt;" class="s1" d="m712.3 381.7c-4.3 0-7.8-3.5-7.8-7.8 0-4.3 3.5-7.8 7.8-7.8 4.4 0 7.9 3.5 7.9 7.8 0 4.3-3.5 7.8-7.9 7.8z"/>
						<g id="&lt;Group&gt;">
							<path id="&lt;Compound Path&gt;" fill-rule="evenodd" class="s0" d="m712.3 382.2c-2.2 0-4.2-0.9-5.8-2.4-1.6-1.6-2.4-3.7-2.4-5.9 0-2.2 0.8-4.2 2.4-5.8 1.6-1.6 3.6-2.4 5.8-2.4 2.3 0 4.3 0.8 5.9 2.4 1.6 1.6 2.4 3.6 2.4 5.8 0 4.6-3.7 8.3-8.3 8.3zm0-15.6c-1.9 0-3.8 0.8-5.2 2.1-1.3 1.4-2.1 3.3-2.1 5.2 0 2 0.8 3.8 2.1 5.2 1.4 1.4 3.3 2.2 5.2 2.2 4.1 0 7.4-3.3 7.4-7.4 0-1.9-0.8-3.8-2.2-5.2-1.3-1.3-3.2-2.1-5.2-2.1z"/>
						</g>
					</g>
					<g id="&lt;Group&gt;">
						<path id="&lt;Path&gt;" class="s1" d="m669.4 282c-2.6 1.4-5.8 0.6-7.3-2-1.5-2.5-0.6-5.8 2-7.3 2.5-1.4 5.8-0.5 7.2 2 1.5 2.5 0.6 5.8-1.9 7.3z"/>
						<g id="&lt;Group&gt;">
							<path id="&lt;Compound Path&gt;" fill-rule="evenodd" class="s0" d="m666.7 283.1c-2 0-4-1.1-5-2.9-0.8-1.3-1-2.9-0.6-4.3 0.4-1.5 1.4-2.8 2.7-3.5 0.9-0.6 1.9-0.8 2.9-0.8 2.1 0 4 1.1 5 2.9 1.6 2.7 0.7 6.3-2.1 7.9-0.9 0.5-1.9 0.7-2.9 0.7zm0-10.6c-0.8 0-1.7 0.2-2.4 0.6-1.1 0.7-1.9 1.7-2.3 3-0.3 1.3-0.1 2.6 0.5 3.7 0.9 1.5 2.5 2.4 4.2 2.4 0.9 0 1.7-0.2 2.5-0.6 2.3-1.4 3.1-4.4 1.7-6.7-0.8-1.5-2.4-2.4-4.2-2.4z"/>
						</g>
					</g>
					<g id="&lt;Group&gt;">
						<path id="&lt;Path&gt;" class="s1" d="m616.4 228.8c-2.5 1.5-5.8 0.6-7.2-2-1.5-2.5-0.6-5.8 1.9-7.2 2.6-1.5 5.8-0.6 7.3 1.9 1.5 2.6 0.6 5.8-2 7.3z"/>
						<g id="&lt;Group&gt;">
							<path id="&lt;Compound Path&gt;" fill-rule="evenodd" class="s0" d="m613.8 230c-2.1 0-4-1.2-5-2.9-1.6-2.8-0.7-6.3 2.1-7.9 0.9-0.5 1.9-0.8 2.9-0.8 2 0 4 1.1 5 2.9 0.8 1.3 1 2.9 0.6 4.4-0.4 1.5-1.4 2.7-2.7 3.5-0.9 0.5-1.9 0.8-2.9 0.8zm0-10.7c-0.9 0-1.7 0.2-2.4 0.7-2.4 1.3-3.2 4.3-1.8 6.6 0.8 1.5 2.5 2.4 4.2 2.4 0.8 0 1.7-0.2 2.4-0.6 1.1-0.7 1.9-1.7 2.3-3 0.3-1.2 0.1-2.5-0.5-3.7-0.9-1.5-2.5-2.4-4.2-2.4z"/>
						</g>
					</g>
					<g id="&lt;Group&gt;">
						<path id="&lt;Path&gt;" class="s1" d="m557.8 191.6c-1.5 2.6-4.7 3.4-7.3 2-2.5-1.5-3.4-4.8-1.9-7.3 1.5-2.6 4.7-3.4 7.3-2 2.5 1.5 3.4 4.8 1.9 7.3z"/>
						<g id="&lt;Group&gt;">
							<path id="&lt;Compound Path&gt;" fill-rule="evenodd" class="s0" d="m553.2 194.7c-1 0-2-0.2-2.9-0.7-1.3-0.8-2.3-2.1-2.7-3.6-0.4-1.4-0.2-3 0.6-4.3 1-1.8 2.9-2.9 5-2.9 1 0 2 0.2 2.9 0.7 2.7 1.6 3.7 5.2 2.1 7.9-1 1.8-2.9 2.9-5 2.9zm0-10.6c-1.7 0-3.3 0.9-4.2 2.4-0.7 1.1-0.8 2.5-0.5 3.7 0.3 1.3 1.1 2.3 2.3 3 0.7 0.4 1.5 0.6 2.4 0.6 1.7 0 3.3-0.9 4.2-2.4 1.3-2.3 0.5-5.3-1.8-6.7-0.7-0.4-1.5-0.6-2.4-0.6z"/>
						</g>
					</g>
					<g id="&lt;Group&gt;">
						<path id="&lt;Path&gt;" class="s1" d="m485.4 172c-1.5 2.6-4.8 3.4-7.3 2-2.5-1.5-3.4-4.7-2-7.3 1.5-2.5 4.8-3.4 7.3-1.9 2.6 1.4 3.4 4.7 2 7.2z"/>
						<g id="&lt;Group&gt;">
							<path id="&lt;Compound Path&gt;" fill-rule="evenodd" class="s0" d="m480.8 175.2c-1.1 0-2.1-0.3-2.9-0.8-2.8-1.6-3.7-5.2-2.2-7.9 1.1-1.8 3-2.9 5.1-2.9 1 0 2 0.2 2.8 0.8 1.4 0.7 2.3 2 2.7 3.5 0.4 1.5 0.2 3-0.5 4.4-1.1 1.7-3 2.9-5 2.9zm0-10.7c-1.8 0-3.4 0.9-4.3 2.4-1.3 2.4-0.5 5.3 1.8 6.7 0.8 0.4 1.6 0.6 2.5 0.6 1.7 0 3.3-0.9 4.2-2.4 0.6-1.1 0.8-2.4 0.5-3.7-0.4-1.2-1.2-2.3-2.3-2.9-0.8-0.5-1.6-0.7-2.4-0.7z"/>
						</g>
					</g>
					<g id="&lt;Group&gt;">
						<path id="&lt;Path&gt;" class="s1" d="m523.9 181.8c-2.2 3.8-6.9 5.1-10.7 2.9-3.7-2.2-5-6.9-2.8-10.7 2.1-3.7 6.9-5 10.6-2.8 3.8 2.1 5 6.9 2.9 10.6z"/>
						<g id="&lt;Group&gt;">
							<path id="&lt;Compound Path&gt;" fill-rule="evenodd" class="s0" d="m517.1 186.2c-1.4 0-2.8-0.4-4.1-1.1-1.9-1.1-3.3-2.9-3.9-5-0.5-2.2-0.2-4.4 0.9-6.3 1.4-2.5 4.2-4.1 7.1-4.1 1.5 0 2.9 0.4 4.2 1.1 1.9 1.1 3.2 2.9 3.8 5 0.6 2.1 0.3 4.4-0.8 6.3-1.5 2.5-4.2 4.1-7.2 4.1zm0-15.6c-2.6 0-5 1.4-6.3 3.7-1 1.7-1.3 3.6-0.8 5.5 0.5 1.9 1.8 3.5 3.5 4.5 1.1 0.6 2.3 1 3.6 1 2.6 0 5.1-1.4 6.4-3.7 1-1.7 1.2-3.7 0.7-5.6-0.5-1.9-1.7-3.4-3.4-4.4-1.1-0.7-2.4-1-3.7-1z"/>
						</g>
					</g>
				</g>
				<g id="&lt;Group&gt;">
					<g id="&lt;Group&gt;">
						<path id="&lt;Compound Path&gt;" class="s0" d="m209.2 253.1l8.7 12.5q-3.3-10.3-3.4-14.6-0.2-4.3 1.6-6.6 1-1.2 2.5-1.3 1.5-0.2 2.8 0.9 1.5 1.2 3.4 3.9l8.1 11.6q1.4 2 1.8 2.3 0.3 0.3 0.7 0.3 0.4-0.1 0.6-0.3 0.2-0.2 0.3-0.9 0-2.2-0.9-5.5l1.1-0.4q1.5 5 1.2 8.2-0.2 2.2-1.1 3.4-0.8 0.9-1.8 1-1 0.1-1.9-0.6-1.2-1-3.5-4.2l-7.7-11q-1.4-2.1-2.4-2.9-0.5-0.4-1.1-0.4-0.6 0.1-1 0.6-0.5 0.7-0.7 2.1-0.4 2.8 0.6 6.9 1 4.1 3.2 9.5 1.1 2.9 3 5.7l3.2 4.6-3.1 3.7-11.9-17.1q-2.2-3.1-2.7-3.6-0.6-0.4-1.4-0.3-0.8 0.1-1.3 0.7-0.2 0.3-0.7 1.2l-0.7 1-1-0.5z"/>
						<g id="&lt;Group&gt;">
							<path id="&lt;Compound Path&gt;" fill-rule="evenodd" class="s0" d="m223.4 282.4l-12.3-17.7c-1.9-2.6-2.4-3.3-2.6-3.4q-0.4-0.3-1-0.3-0.6 0.1-1 0.6-0.2 0.3-0.7 1.1l-0.9 1.5-1.8-1.1 6-10.9 7.5 10.7c-1.6-5.4-2.5-9.4-2.6-11.9-0.1-2.9 0.5-5.2 1.8-6.8q1.1-1.4 2.8-1.6 1.7-0.1 3.1 1 1.6 1.3 3.5 4.1l8.1 11.5c1.2 1.7 1.6 2.1 1.7 2.2q0.2 0.2 0.4 0.2 0.2 0 0.2-0.1c0.1 0 0.2-0.2 0.2-0.7 0-1.3-0.3-3.2-0.8-5.3l-0.1-0.4 1.9-0.7 0.2 0.4c0.9 3.4 1.3 6.2 1.2 8.4q-0.3 2.4-1.3 3.7-0.9 1.1-2 1.2-1.2 0.1-2.3-0.8c-0.8-0.7-2-2.1-3.5-4.3l-7.7-11q-1.4-2-2.4-2.8-0.4-0.2-0.7-0.2-0.4 0.1-0.7 0.4-0.5 0.6-0.7 1.9c-0.2 1.8 0 4 0.6 6.7 0.7 2.6 1.7 5.8 3.2 9.4q1.2 2.9 3 5.7l3.3 4.8zm-15.7-22.3q0.8 0 1.4 0.5c0.2 0.2 0.8 0.8 2.8 3.6l11.6 16.7 2.4-3-2.9-4.3q-1.9-2.9-3.1-5.8c-1.5-3.7-2.6-6.9-3.2-9.6-0.7-2.8-0.9-5.2-0.6-7q0.2-1.6 0.8-2.4 0.5-0.6 1.3-0.7 0.7-0.1 1.4 0.4c0.7 0.6 1.6 1.6 2.6 3l7.7 11q2.2 3.2 3.3 4.1 0.8 0.6 1.6 0.6 0.8-0.1 1.4-0.9 0.9-1 1.1-3.1c0.1-2-0.2-4.6-1.1-7.6l-0.2 0.1q0.8 3.1 0.8 5.2-0.1 0.8-0.4 1.2-0.3 0.4-0.9 0.4 0 0 0 0-0.6 0-1.1-0.3c-0.2-0.2-0.6-0.6-1.9-2.5l-8-11.5q-1.9-2.7-3.4-3.8-1.1-1-2.4-0.9-1.3 0.1-2.2 1.2-1.7 2.2-1.5 6.3c0.1 2.8 1.2 7.7 3.3 14.4l-0.8 0.4-8.3-11.9-4.8 8.9 0.2 0.1 0.4-0.7q0.5-0.8 0.8-1.2 0.6-0.7 1.6-0.9 0.2 0 0.3 0z"/>
						</g>
					</g>
					<g id="&lt;Group&gt;">
						<path id="&lt;Compound Path&gt;" class="s0" d="m238 217.4l20.1 13.4q-1.6-8.5-3.9-14.7-1.5-3.6-2.6-4.5-0.6-0.5-1.2-0.6-0.3-0.1-1.3 0.3-1 0.3-1.6 0.2-0.7-0.1-1.3-0.5-0.7-0.7-0.8-1.7-0.1-1 0.6-1.9 0.9-1 2.2-1.1 1.4-0.1 2.6 1 1.3 1 2.1 2.3 1.6 2.5 3.2 7.4 2 5.9 3.2 11.5 1.2 5.6 1.5 8.1l-0.8 1-18.6-12.4 9 24.3-0.9 1.1q-10.8-8.4-17.7-12.5-2.9-1.7-4.4-1.5-1 0.2-2.1 1.5-0.6 0.7-1.3 1.9l-0.9-0.7 4.1-8.5q5.4 1.8 14.4 8.4 3.4 2.5 4.3 3l-8.7-23.9z"/>
						<g id="&lt;Group&gt;">
							<path id="&lt;Compound Path&gt;" fill-rule="evenodd" class="s0" d="m249.6 251.2l-0.4-0.2c-7.1-5.6-13.1-9.8-17.6-12.5q-2.7-1.6-4.1-1.4-0.9 0.1-1.8 1.2-0.6 0.8-1.4 2l-0.2 0.4-1.6-1.3 4.4-9.2 0.4 0.1c3.7 1.3 8.5 4.1 14.5 8.5q2 1.4 3.2 2.3l-8.3-22.9 1.2-1.4 19.5 13c-1-5.1-2.2-9.7-3.7-13.5-1.1-2.9-1.9-4-2.4-4.4q-0.5-0.4-1-0.4c-0.1 0-0.4 0-1 0.2q-1.1 0.4-1.9 0.3-0.8-0.2-1.5-0.7-0.9-0.7-1-1.9-0.1-1.2 0.8-2.3 0.9-1.1 2.5-1.2 1.5-0.1 2.9 1 1.3 1.1 2.2 2.4c1.1 1.7 2.2 4.2 3.3 7.5 1.2 4 2.3 7.9 3.1 11.6 0.8 3.8 1.3 6.5 1.5 8.2v0.2l-1.1 1.4-17.7-11.8 8.5 23.2zm-21.8-15.1c1.1 0 2.5 0.5 4.3 1.6 4.5 2.6 10.3 6.8 17.3 12.2l0.5-0.5-9.4-25.4 19.4 12.9 0.4-0.4c-0.2-1.7-0.7-4.3-1.5-7.9-0.8-3.7-1.8-7.6-3.1-11.5-1.1-3.3-2.1-5.7-3.1-7.3q-0.8-1.2-2-2.2-1.2-0.9-2.3-0.9-1.2 0.1-1.9 1-0.6 0.7-0.5 1.6 0 0.8 0.7 1.3 0.4 0.3 0.9 0.4 0.6 0.1 1.5-0.2c0.8-0.3 1.3-0.4 1.6-0.3 0.4 0.1 0.9 0.3 1.3 0.7 0.9 0.6 1.7 2.2 2.7 4.7 1.6 4.2 2.9 9.1 4 14.8l0.2 1-20.7-13.7-0.3 0.4 9 24.9-1.1-0.7c-0.7-0.4-2.1-1.4-4.4-3.1-5.7-4.2-10.4-6.9-13.9-8.2l-3.7 7.8 0.2 0.2q0.6-1 1.1-1.6 1.1-1.4 2.4-1.6 0.2 0 0.4 0z"/>
						</g>
					</g>
				</g>
				<g id="&lt;Group&gt;">
					<g id="&lt;Group&gt;">
						<path id="&lt;Compound Path&gt;" class="s0" d="m649 224.9l-13.2 7.5q10.5-2.3 14.8-2.1 4.2 0.2 6.4 2.3 1.1 1.1 1.1 2.6 0 1.5-1.2 2.7-1.4 1.4-4.2 3l-12.3 7q-2.1 1.2-2.5 1.6-0.3 0.3-0.3 0.7 0 0.4 0.2 0.6 0.2 0.2 0.9 0.3 2.2 0.3 5.6-0.3l0.3 1.1q-5.1 1-8.3 0.4-2.2-0.4-3.3-1.4-0.9-0.9-0.9-1.9 0-1 0.9-1.8 1.1-1.1 4.5-3.1l11.7-6.6q2.1-1.2 3.1-2.2 0.4-0.4 0.4-1 0-0.6-0.5-1-0.6-0.6-2-1-2.7-0.6-6.9 0-4.1 0.6-9.8 2.3-3 0.9-6 2.5l-4.8 2.7-3.5-3.4 18.3-10.3q3.2-1.9 3.7-2.4 0.5-0.5 0.5-1.3 0-0.8-0.6-1.3-0.3-0.3-1.1-0.9l-1-0.7 0.7-1z"/>
						<g id="&lt;Group&gt;">
							<path id="&lt;Compound Path&gt;" fill-rule="evenodd" class="s0" d="m638.8 253q-1.4 0-2.6-0.2-2.4-0.5-3.5-1.6-1-1-1-2.2 0-1.1 1-2.1c0.7-0.8 2.2-1.8 4.5-3.2l11.7-6.6q2.1-1.2 3-2.1 0.3-0.3 0.3-0.7 0-0.4-0.3-0.7-0.5-0.5-1.8-0.8c-1.8-0.4-4-0.4-6.7 0-2.8 0.3-6 1.1-9.8 2.2q-2.9 0.9-5.8 2.5l-5.2 2.8-4.1-4 18.7-10.6c2.8-1.6 3.5-2.1 3.7-2.3q0.4-0.4 0.3-1 0-0.6-0.4-1-0.3-0.2-1.1-0.8l-1.3-1 1.2-1.7 10.3 7-11.4 6.4c5.6-1.1 9.6-1.5 12.1-1.4 2.9 0.1 5.2 0.9 6.7 2.4q1.3 1.2 1.3 2.9-0.1 1.7-1.4 3-1.4 1.5-4.3 3.2l-12.2 6.9c-1.9 1.1-2.3 1.4-2.4 1.5q-0.2 0.2-0.2 0.4 0 0.2 0 0.2c0 0.1 0.2 0.2 0.7 0.3 1.3 0.1 3.2 0 5.4-0.4h0.4l0.5 2-0.4 0.1q-3.3 0.6-5.9 0.6zm8.2-21.5q1.8 0 3.3 0.4 1.5 0.4 2.3 1.1 0.5 0.5 0.5 1.3 0.1 0.7-0.5 1.3c-0.7 0.7-1.7 1.5-3.2 2.3l-11.7 6.7q-3.3 1.8-4.4 2.9-0.7 0.7-0.7 1.6 0 0.8 0.7 1.5 1 0.9 3 1.3c2 0.3 4.6 0.2 7.7-0.3l-0.1-0.3q-3.1 0.5-5.2 0.3-0.9-0.1-1.2-0.5-0.4-0.3-0.3-0.9 0-0.6 0.4-1.1c0.2-0.1 0.7-0.5 2.6-1.6l12.2-7q2.9-1.6 4.2-2.9 1-1.1 1-2.4 0-1.3-1-2.3-2-1.9-6-2.1c-2.8-0.1-7.8 0.5-14.7 2l-0.4-0.8 12.7-7.2-8.4-5.6-0.2 0.2 0.7 0.5q0.8 0.5 1.1 0.8 0.7 0.7 0.8 1.7 0 1-0.6 1.6c-0.3 0.3-0.9 0.8-3.9 2.5l-17.7 10 2.8 2.7 4.5-2.5q3-1.7 6.1-2.6c3.7-1.1 7.1-1.9 9.9-2.3q2-0.3 3.7-0.3z"/>
						</g>
					</g>
					<g id="&lt;Group&gt;">
						<path id="&lt;Compound Path&gt;" fill-rule="evenodd" class="s0" d="m655.9 255.3q-1.3 1-2 1.7-2 2.1-2 4.9 0.1 2.9 2.2 4.9 1.6 1.6 3.8 2.4 2.2 0.8 7.4 1.4l-0.1 1.2q-10.7 0-15.7-4.8-3.3-3.2-2.9-7 0.3-3.8 2.8-6.3 3.4-3.4 9-4.9 5.6-1.6 10.7-0.5 5.1 1.2 8.5 4.5 2.4 2.3 2.6 4.5 0.2 2.1-1.1 3.5-1.8 1.9-5.1 2.1-4.2 0.4-9.4-2-3.5-1.6-8.7-5.6zm1.3-1q3.8 2.9 6.8 4.1 4.1 1.5 7.2 1.1 3.1-0.4 4.7-2 0.9-0.9 0.9-2.1-0.1-1.2-1.2-2.3-2.3-2.3-7.4-2.4-5 0-11 3.6z"/>
						<g id="&lt;Group&gt;">
							<path id="&lt;Compound Path&gt;" fill-rule="evenodd" class="s0" d="m664.9 272.2c-7.1 0-12.4-1.6-15.7-4.8-2.3-2.3-3.3-4.8-3.1-7.4 0.3-2.6 1.3-4.9 3-6.6 2.3-2.4 5.3-4.1 9.1-5.1 3.8-1 7.5-1.2 11-0.4 3.5 0.7 6.4 2.3 8.7 4.5q2.6 2.5 2.8 4.8 0.2 2.4-1.2 3.9-2 2-5.4 2.3-4.4 0.3-9.7-2.1c-2.3-1-5.1-2.9-8.5-5.4q-1 0.8-1.7 1.5c-1.2 1.2-1.8 2.7-1.8 4.5 0 1.8 0.7 3.3 2 4.6q1.6 1.5 3.7 2.3c1.4 0.5 3.9 1 7.3 1.4h0.5l-0.3 2zm-0.2-23.9q-3 0-6.2 0.9c-3.6 1-6.6 2.6-8.7 4.8-1.6 1.6-2.5 3.7-2.7 6-0.3 2.4 0.7 4.6 2.8 6.7 3.1 3 8.1 4.6 14.9 4.6v-0.3q-4.9-0.6-7-1.3-2.3-0.9-4-2.6-2.3-2.1-2.3-5.2 0-3 2.1-5.2 0.7-0.8 2-1.8l0.3-0.2 0.3 0.2c3.4 2.7 6.3 4.5 8.6 5.5 3.4 1.6 6.5 2.3 9.2 2.1q3.1-0.3 4.8-2.1 1.2-1.2 1-3.1-0.2-2-2.5-4.2c-2.2-2.1-5-3.6-8.3-4.3q-2.1-0.5-4.3-0.5zm5.2 11.7q-2.7 0-6-1.2c-2.1-0.8-4.4-2.2-7-4.1l-0.5-0.4 0.6-0.4c3.9-2.4 7.7-3.6 11-3.6h0.3c3.4 0 6 0.9 7.7 2.5q1.2 1.2 1.2 2.6 0.1 1.4-1 2.4-1.7 1.8-4.9 2.1-0.7 0.1-1.4 0.1zm-11.9-5.6q3.4 2.5 6.2 3.5 3.2 1.2 5.7 1.2 0.7 0 1.3-0.1 2.9-0.3 4.4-1.8 0.7-0.8 0.7-1.8 0-1-1-2c-1.4-1.4-3.8-2.2-7.1-2.2h-0.2c-3 0-6.4 1.1-10 3.2z"/>
						</g>
					</g>
				</g>
				<g id="&lt;Group&gt;">
					<g id="&lt;Group&gt;">
						<path id="&lt;Compound Path&gt;" class="s0" d="m239.8 664.8l8.6-5.3 0.8 0.9q-3.1 3.1-3.4 5.6-0.3 2.6 1.4 4.4 1.3 1.4 2.9 1.6 1.6 0.1 2.7-1 0.8-0.7 1.2-1.7 0.4-0.9 0.6-3.3 0.5-6.1 1.4-8.6 0.9-2.4 2.4-3.8 2.5-2.3 6.2-2 3.8 0.3 6.7 3.4 1.5 1.7 2.8 4.7 0.4 1 0.8 1.4 1 1.1 2.6 0.7l0.7 0.8-8.9 5.6-0.8-0.9q3.5-3.4 3.7-6.1 0.2-2.7-1.9-5.1-1.7-1.8-3.6-1.9-2-0.1-3.5 1.2-0.9 0.9-1.4 2-0.8 2-1.3 6.4-0.6 4.4-1.3 6.2-0.7 1.7-2 2.9-2.2 2.1-5.4 1.9-3.1-0.3-5.5-2.9-0.7-0.7-1.1-1.5-0.2-0.4-0.9-2-0.7-1.6-1.1-2-0.9-1-2.6-0.7z"/>
						<g id="&lt;Group&gt;">
							<path id="&lt;Compound Path&gt;" fill-rule="evenodd" class="s0" d="m252.4 675.2q-0.3 0-0.6 0-3.3-0.2-5.8-3-0.8-0.8-1.2-1.5-0.3-0.5-0.9-2.1c-0.6-1.4-0.9-1.8-1-1.9q-0.7-0.8-2.3-0.6l-0.2 0.1-1.4-1.5 9.4-5.7 1.4 1.4-0.3 0.4q-3 2.9-3.2 5.3c-0.2 1.5 0.2 2.9 1.2 4q1.2 1.3 2.6 1.4 1.4 0.1 2.4-0.8 0.7-0.6 1.1-1.5 0.3-1 0.5-3.2c0.4-4.2 0.9-7.1 1.5-8.7q0.9-2.6 2.5-4.1 2.6-2.4 6.6-2.1c2.6 0.3 4.9 1.5 6.9 3.6q1.6 1.8 2.9 4.8 0.4 1 0.7 1.3 0.8 0.9 2.1 0.5l0.3-0.1 1.4 1.5-9.8 6.1-1.4-1.5 0.3-0.3c2.3-2.2 3.5-4.2 3.6-5.9 0.2-1.6-0.4-3.2-1.8-4.7-1-1.1-2.1-1.7-3.3-1.7q-1.7-0.2-3.1 1-0.8 0.8-1.3 1.9c-0.5 1.3-0.9 3.4-1.3 6.3-0.4 3-0.8 5-1.3 6.2q-0.7 1.9-2 3.1-2.3 2-5.2 2zm-11-10.1q1.3 0 2.2 0.9c0.2 0.2 0.5 0.7 1.1 2.2 0.6 1.4 0.8 1.9 0.9 2q0.4 0.7 1 1.4 2.3 2.5 5.3 2.7c1.9 0.1 3.6-0.4 5-1.8q1.2-1.1 1.9-2.7 0.6-1.7 1.2-6.1 0.6-4.4 1.4-6.5 0.5-1.2 1.5-2.1 1.6-1.5 3.8-1.4 2.1 0.2 3.9 2.1 2.3 2.5 2.1 5.4-0.3 2.8-3.6 6.2l0.2 0.2 8.2-5.1-0.2-0.2q-1.7 0.3-2.7-0.8-0.5-0.5-1-1.7-1.2-2.8-2.7-4.5c-1.8-1.9-3.9-3-6.3-3.2-2.4-0.2-4.4 0.4-5.9 1.8q-1.4 1.3-2.3 3.7c-0.5 1.6-1 4.4-1.4 8.5q-0.2 2.4-0.6 3.4-0.4 1.1-1.3 1.9-1.3 1.2-3.1 1-1.7-0.1-3.2-1.7-1.8-2-1.5-4.7 0.4-2.6 3.2-5.6l-0.2-0.3-7.8 4.8 0.2 0.3q0.4-0.1 0.7-0.1z"/>
						</g>
					</g>
					<g id="&lt;Group&gt;">
						<path id="&lt;Compound Path&gt;" class="s0" d="m219.9 643.2l16.3-17.9q-8.6 0.3-15.1 1.8-3.8 0.8-4.9 1.8-0.5 0.5-0.7 1.1-0.2 0.3 0 1.3 0.2 1 0 1.7-0.2 0.7-0.7 1.1-0.7 0.7-1.7 0.6-1 0-1.8-0.9-0.9-1-0.8-2.3 0.1-1.4 1.3-2.5 1.2-1.1 2.6-1.7 2.7-1.2 7.8-2.1 6.2-1 11.9-1.4 5.7-0.3 8.2-0.2l0.9 0.8-15 16.6 25.3-5.3 1 1.1q-9.9 9.4-15 15.6-2.1 2.6-2.1 4.1 0 1.1 1.1 2.3 0.7 0.7 1.7 1.6l-0.8 0.8-7.8-5.3q2.6-5.1 10.4-13 3-3 3.7-3.8l-25 5z"/>
						<g id="&lt;Group&gt;">
							<path id="&lt;Compound Path&gt;" fill-rule="evenodd" class="s0" d="m239.4 661.8l-8.4-5.7 0.2-0.4c1.7-3.4 5.3-7.8 10.5-13.1q1.7-1.8 2.7-2.8l-23.8 4.8-1.3-1.4 15.8-17.4c-5.2 0.3-9.9 0.8-13.9 1.7-3.1 0.7-4.2 1.3-4.7 1.7q-0.4 0.5-0.6 0.9c0 0.1-0.1 0.3 0.1 1.1q0.2 1.2 0 1.9-0.3 0.8-0.9 1.4-0.8 0.8-2.1 0.7-1.2-0.1-2.1-1.1-1-1.1-0.9-2.6 0.2-1.6 1.5-2.8 1.3-1.2 2.7-1.8c1.9-0.8 4.5-1.5 7.9-2.1 4.1-0.7 8.2-1.2 12-1.4 3.8-0.3 6.6-0.4 8.3-0.3h0.2l1.2 1.3-14.3 15.8 24.2-5 1.4 1.6-0.3 0.3c-6.6 6.2-11.6 11.5-14.9 15.6q-2 2.5-2 3.8 0 0.9 1 2 0.6 0.7 1.7 1.6l0.3 0.3zm-7.2-6l7.2 4.9 0.2-0.2q-0.9-0.8-1.4-1.4-1.2-1.3-1.3-2.6c0-1.1 0.8-2.5 2.3-4.4 3.3-4 8.2-9.2 14.6-15.3l-0.4-0.5-26.5 5.4 15.6-17.2-0.4-0.5q-2.5 0-8 0.3c-3.7 0.3-7.7 0.7-11.8 1.4-3.4 0.6-5.9 1.3-7.7 2q-1.3 0.6-2.5 1.7-1 1-1.1 2.1-0.1 1.2 0.6 2 0.7 0.7 1.5 0.8 0.8 0 1.4-0.5 0.4-0.4 0.6-0.9 0.1-0.6 0-1.5c-0.2-1-0.1-1.4-0.1-1.6 0.2-0.4 0.5-0.8 0.9-1.2 0.8-0.7 2.4-1.4 5.1-2 4.3-0.9 9.4-1.5 15.2-1.7l1.1-0.1-16.7 18.4 0.3 0.4 26-5.2-0.9 1c-0.4 0.6-1.7 1.8-3.7 3.9-4.9 5-8.3 9.2-10.1 12.5z"/>
						</g>
					</g>
				</g>
				<g id="&lt;Group&gt;">
					<g id="&lt;Group&gt;">
						<path id="&lt;Compound Path&gt;" class="s0" d="m656.4 658.8l-5.6-8.4 0.8-0.8q3.2 2.9 5.7 3.1 2.6 0.2 4.3-1.5 1.4-1.4 1.5-3 0.1-1.6-1-2.7-0.8-0.7-1.8-1.1-1-0.4-3.3-0.5-6.2-0.3-8.7-1-2.5-0.8-3.9-2.3-2.4-2.3-2.2-6.1 0.1-3.8 3.1-6.8 1.6-1.6 4.5-3 1-0.4 1.5-0.9 1-1 0.5-2.5l0.8-0.9 6 8.8-0.9 0.8q-3.6-3.3-6.3-3.5-2.7-0.1-5 2.2-1.7 1.7-1.7 3.7-0.1 1.9 1.3 3.3 0.9 0.9 2.1 1.4 2 0.7 6.4 1.1 4.5 0.3 6.2 1 1.8 0.6 3 1.8 2.2 2.2 2.1 5.3-0.1 3.1-2.6 5.7-0.7 0.7-1.4 1.2-0.4 0.2-2 0.9-1.6 0.8-2 1.1-1 1-0.6 2.8z"/>
						<g id="&lt;Group&gt;">
							<path id="&lt;Compound Path&gt;" fill-rule="evenodd" class="s0" d="m656.3 659.5l-6.1-9.1 1.4-1.5 0.3 0.3q3.1 2.9 5.5 3.1c1.6 0.1 2.8-0.4 3.9-1.5q1.3-1.2 1.3-2.6 0.1-1.4-0.9-2.4-0.6-0.6-1.5-1-1-0.3-3.2-0.4c-4.2-0.2-7.1-0.6-8.8-1.1q-2.6-0.8-4.1-2.3c-1.7-1.7-2.5-3.9-2.4-6.5 0.1-2.7 1.2-5 3.3-7.1q1.7-1.7 4.6-3.1 1-0.4 1.3-0.8 0.9-0.8 0.4-2.1v-0.3l1.4-1.4 6.5 9.5-1.5 1.5-0.3-0.3c-2.3-2.2-4.3-3.3-6-3.4q-2.5-0.1-4.6 2-1.6 1.6-1.7 3.4 0 1.7 1.2 3 0.9 0.8 1.9 1.2c1.3 0.5 3.4 0.8 6.4 1.1 3 0.3 5 0.6 6.3 1q1.9 0.7 3.1 2 2.4 2.3 2.3 5.6-0.1 3.3-2.7 6-0.8 0.8-1.6 1.2c-0.3 0.2-0.9 0.5-2 1-1.4 0.6-1.8 0.9-1.9 1.1q-0.8 0.7-0.4 2.3v0.2zm-4.9-9l5.1 7.6 0.2-0.3q-0.3-1.8 0.8-2.9c0.2-0.2 0.6-0.5 2.1-1.2q1.6-0.7 2-1 0.6-0.4 1.3-1.1 2.4-2.4 2.5-5.3c0-2-0.6-3.6-2-5q-1.1-1.1-2.8-1.7-1.7-0.6-6.1-1-4.5-0.4-6.6-1.1-1.2-0.5-2.2-1.5-1.5-1.5-1.5-3.7 0.1-2.1 1.9-4 2.4-2.4 5.4-2.2c1.8 0 3.9 1.1 6.2 3.3l0.3-0.3-5.4-8-0.3 0.3c0.3 1.1 0.1 2-0.7 2.8q-0.5 0.4-1.6 0.9-2.8 1.4-4.4 2.9c-1.9 1.9-2.9 4.1-3 6.5q-0.1 3.6 2.1 5.8 1.4 1.4 3.8 2.1c1.6 0.5 4.5 0.9 8.5 1.1q2.4 0 3.5 0.4 1.1 0.4 1.9 1.3 1.3 1.2 1.2 3-0.1 1.8-1.6 3.3-1.9 1.9-4.7 1.6-2.6-0.2-5.6-2.9z"/>
						</g>
					</g>
					<g id="&lt;Group&gt;">
						<path id="&lt;Compound Path&gt;" fill-rule="evenodd" class="s0" d="m637.6 653.5q-1-1.2-1.7-2-2-2-4.9-2-2.8 0-4.9 2.1-1.6 1.6-2.5 3.8-0.8 2.2-1.5 7.4l-1.1-0.2q0.1-10.7 4.9-15.6 3.3-3.2 7.1-2.8 3.8 0.4 6.3 2.9 3.4 3.4 4.8 9 1.4 5.6 0.3 10.7-1.2 5.1-4.6 8.5-2.4 2.4-4.5 2.6-2.1 0.1-3.5-1.2-1.9-1.9-2.1-5.1-0.3-4.2 2.2-9.4 1.6-3.5 5.7-8.7zm1 1.3q-3 3.8-4.2 6.8-1.5 4.1-1.2 7.2 0.3 3.1 1.9 4.7 0.9 0.9 2.1 0.9 1.2 0 2.3-1.1 2.3-2.3 2.5-7.4 0.1-5-3.4-11.1z"/>
						<g id="&lt;Group&gt;">
							<path id="&lt;Compound Path&gt;" fill-rule="evenodd" class="s0" d="m634.8 678.3q-2 0-3.3-1.3-2-2-2.2-5.4c-0.2-2.9 0.5-6.1 2.2-9.6 1-2.3 2.9-5.1 5.5-8.5q-0.8-1-1.4-1.6c-1.3-1.3-2.8-1.9-4.6-1.9-1.8 0-3.3 0.6-4.6 1.9q-1.5 1.5-2.3 3.6c-0.6 1.5-1.1 3.9-1.5 7.4l-0.1 0.4-2-0.3v-0.4c0.1-7.2 1.8-12.6 5.1-15.9 2.3-2.3 4.8-3.3 7.5-3 2.6 0.3 4.8 1.3 6.5 3.1 2.3 2.3 4 5.4 4.9 9.2 1 3.8 1.1 7.5 0.3 10.9-0.8 3.5-2.3 6.4-4.6 8.7q-2.5 2.5-4.9 2.7-0.2 0-0.5 0zm-3.8-29.3q3.1 0.1 5.2 2.2 0.8 0.8 1.8 2.1l0.2 0.2-0.2 0.3c-2.7 3.4-4.6 6.3-5.7 8.6-1.6 3.3-2.3 6.4-2.1 9.2q0.2 3 2 4.8 1.1 1.2 3.1 1 1.9-0.2 4.2-2.4c2.2-2.2 3.7-5 4.4-8.3 0.8-3.3 0.7-6.8-0.2-10.5-1-3.6-2.6-6.6-4.8-8.8q-2.3-2.4-5.9-2.8-3.6-0.4-6.7 2.8c-3.1 3.1-4.7 8.1-4.8 14.8l0.2 0.1q0.7-4.9 1.5-7.1 0.9-2.3 2.6-4 2.2-2.2 5.2-2.2zm6.2 25.9q-1.4 0-2.4-1.1-1.7-1.7-2.1-5c-0.2-2.1 0.2-4.6 1.3-7.3 0.8-2.1 2.2-4.4 4.2-6.9l0.4-0.6 0.4 0.6c2.4 4.1 3.6 7.9 3.5 11.4-0.1 3.4-1 6-2.6 7.6q-1.3 1.3-2.7 1.3zm1.3-19.2q-2.6 3.3-3.7 6.1c-1 2.6-1.4 4.9-1.1 6.9q0.3 3 1.7 4.5 0.8 0.8 1.8 0.8c0.7-0.1 1.4-0.4 2-1 1.5-1.5 2.2-3.8 2.3-7.1 0.1-3.1-0.9-6.5-3-10.2z"/>
						</g>
					</g>
				</g>
			</g>
			<g id="&lt;Group&gt;">
				<g id="&lt;Group&gt;">
					<g id="&lt;Group&gt;">
						<path id="&lt;Compound Path&gt;" class="s0" d="m443.5 31.7l20.1 51 10.9-38.1q1.3-4.7 1.3-7.2 0-1.8-1.3-2.8-1.2-1-4.6-1-0.6 0-1.2-0.1l0.5-1.8h20.9l-0.6 1.8q-3.2 0-4.8 0.7-2.2 1-3.4 2.6-1.5 2.2-3.1 7.8l-15.3 53.6h-1.7l-21.6-54.8-11.5 40.4q-1.3 4.7-1.3 7.1 0 1.8 1.2 2.8 1.1 0.9 5.5 1.2l-0.4 1.8h-20.4l0.6-1.8q3.9 0 5.2-0.6 2-0.9 2.9-2.3 1.4-2.1 3.1-8.2l12.9-45.1q-1.9-2.9-4-3.9-2.2-1.1-6.6-1.3l0.5-1.8z"/>
						<g id="&lt;Group&gt;">
							<path id="&lt;Compound Path&gt;" fill-rule="evenodd" class="s0" d="m463.3 98.6h-2.4l-0.1-0.2-21.1-53.6-11.2 39.2c-0.8 3-1.2 5.3-1.2 6.9q0 1.6 1 2.4c0.5 0.4 1.8 0.9 5.3 1.2h0.5l-0.7 2.7h-21.4l1-2.7h0.3q3.8-0.1 5-0.7 1.8-0.8 2.7-2.1c0.9-1.3 1.9-4 3.1-8l12.8-44.9q-1.8-2.6-3.7-3.6-2.1-1.1-6.5-1.2l-0.5-0.1 0.8-2.6h16.9l19.6 49.9 10.5-36.7c0.9-3.1 1.3-5.5 1.3-7.1q0-1.6-1-2.5-1.2-0.9-4.4-0.9-0.6 0-1.2 0l-0.6-0.1 0.8-2.6h21.9l-0.9 2.7h-0.9q-2.8 0-4.1 0.6-2.1 0.9-3.2 2.4c-1 1.5-2 4.1-3 7.8zm-1.8-1h1.1l15.2-53.2c1.1-3.8 2.1-6.4 3.1-8q1.2-1.7 3.6-2.7c1-0.5 2.5-0.7 4.5-0.7h0.2l0.3-0.9h-19.9l-0.3 0.9q0.3 0 0.6 0c2.4 0 4 0.4 4.9 1.1q1.4 1.2 1.4 3.2c0 1.8-0.4 4.2-1.3 7.4l-11.3 39.3-20.4-51.9h-15.6l-0.2 0.9c2.7 0.1 4.8 0.6 6.2 1.3q2.2 1.1 4.1 4.1l0.1 0.1-12.9 45.4c-1.1 4.1-2.2 6.8-3.1 8.3q-1.1 1.5-3.1 2.4c-0.9 0.4-2.6 0.6-5.1 0.7l-0.3 0.9h19.4l0.2-0.9c-2.7-0.3-4.4-0.7-5.2-1.4q-1.3-1.1-1.4-3.1c0-1.6 0.5-4 1.3-7.2l11.9-41.7z"/>
						</g>
					</g>
				</g>
				<g id="&lt;Group&gt;">
					<path id="&lt;Compound Path&gt;" class="s0" d="m425.5 858.3l5.3-24.1h1.7q-0.4 3.5-0.4 5.7 0 6.7 4.2 10.8 4.2 4.1 11 4.1 6.2 0 9.5-3.9 3.2-3.8 3.2-8.9 0-3.2-1.4-5.9-2.3-4-12.1-14-4.7-4.8-6.1-7.1-2.2-3.9-2.2-8.2 0-6.8 5.1-11.6 5.1-4.9 13-4.9 2.8 0 5.2 0.6 1.4 0.3 5.4 1.9 2.7 1.1 3 1.2 0.7 0.1 1.5 0.1 1.4 0 2.4-0.7 1-0.7 2.3-3.1h1.9l-5 21.6h-1.7q0.3-2.9 0.3-4.6 0-5.8-3.9-9.5-3.8-3.7-10.1-3.7-5 0-8.1 2.9-3.1 2.9-3.1 6.8 0 3.3 2 6.3 2 3.1 9.2 9.9 7.1 6.9 9.2 10.8 2.1 3.9 2.1 8.2 0 4.9-2.6 9.6-2.6 4.6-7.5 7.1-4.9 2.6-10.7 2.6-2.8 0-5.3-0.6-2.5-0.5-8-2.5-1.8-0.7-3.1-0.7-2.9 0-4.4 3.8z"/>
					<g id="&lt;Group&gt;">
						<path id="&lt;Compound Path&gt;" fill-rule="evenodd" class="s0" d="m448.1 858.7q-2.9 0-5.4-0.5c-1.7-0.4-4.4-1.2-8.1-2.6q-1.7-0.7-2.9-0.7c-1.7 0-3 1.2-4 3.5l-0.1 0.3h-2.7l5.5-25h2.6l-0.1 0.5q-0.3 3.5-0.3 5.7c0 4.3 1.3 7.8 4 10.4 2.7 2.7 6.3 4 10.7 4 4 0 7.1-1.2 9.1-3.7 2.1-2.4 3.2-5.3 3.2-8.6q0-3.1-1.4-5.7c-1.5-2.6-5.5-7.3-12-13.9-3.2-3.2-5.2-5.6-6.2-7.2-1.5-2.6-2.2-5.5-2.2-8.4 0-4.6 1.7-8.6 5.2-12 3.5-3.3 8-4.9 13.3-4.9q2.8 0 5.3 0.5c1 0.2 2.8 0.9 5.4 2q2.6 1 3 1.2 0.7 0.1 1.4 0.1 1.3 0 2.1-0.7 0.9-0.6 2.2-2.9l0.2-0.2h2.7l-5.2 22.5h-2.6l0.1-0.5q0.2-2.9 0.2-4.6c0-3.8-1.2-6.8-3.7-9.2-2.4-2.4-5.8-3.6-9.8-3.6-3.2 0-5.8 1-7.8 2.8-1.9 1.9-2.9 4-2.9 6.5q0 3.2 1.9 6.1c1.3 2 4.3 5.3 9.1 9.8 4.8 4.6 7.9 8.3 9.3 10.9 1.4 2.6 2.2 5.4 2.2 8.4 0 3.4-0.9 6.7-2.7 9.8-1.8 3.2-4.3 5.6-7.7 7.4-3.3 1.7-7 2.5-10.9 2.5zm-16.4-4.7q1.3 0 3.3 0.8c3.6 1.3 6.2 2.1 7.9 2.5q2.4 0.5 5.2 0.5c3.8 0 7.3-0.8 10.5-2.5 3.2-1.6 5.6-3.9 7.3-6.9 1.7-3.1 2.5-6.2 2.5-9.4 0-2.8-0.7-5.5-2-8-1.4-2.5-4.4-6.1-9.2-10.6-4.7-4.6-7.9-8-9.2-10-1.4-2.1-2.1-4.3-2.1-6.6 0-2.7 1.1-5.1 3.3-7.1 2.2-2.1 5-3.1 8.4-3.1 4.3 0 7.8 1.3 10.4 3.8 2.7 2.6 4 5.9 4 9.9q0 1.6-0.2 4.2h0.8l4.8-20.7h-1c-0.9 1.5-1.7 2.5-2.3 3q-1.1 0.8-2.7 0.8-0.8 0-1.6-0.1l-0.1-0.1q-0.3-0.1-3-1.1-3.9-1.7-5.3-2-2.4-0.5-5.1-0.5c-5.1 0-9.4 1.6-12.6 4.7-3.3 3.1-5 6.9-5 11.3 0 2.8 0.7 5.4 2.2 7.9 0.8 1.6 2.9 3.9 5.9 7.1 6.6 6.6 10.7 11.4 12.2 14.1q1.5 2.7 1.5 6.1c0 3.5-1.1 6.6-3.4 9.2-2.2 2.7-5.5 4-9.8 4-4.6 0-8.4-1.4-11.3-4.2-2.9-2.8-4.3-6.5-4.3-11.1q0-2.1 0.3-5.3h-0.8l-5.2 23.2h1q1.7-3.8 4.7-3.8z"/>
					</g>
				</g>
				<g id="&lt;Group&gt;">
					<g id="&lt;Group&gt;">
						<g id="&lt;Group&gt;">
							<path id="&lt;Compound Path&gt;" class="s0" d="m96.6 475.5l-54.2-5.6q-3-0.3-4.7-0.3-2.8 0-4.2 1.5-1.5 1.6-1.6 5.8l-1.8-0.6v-24.3l1.8 0.5q0 4.9 1.8 6.7 1.8 1.8 8.7 2.4l35.2 3.7-38.1-24.7q-1-0.1-1.7-0.1-2.7 0-4.1 1.6-1.4 1.6-1.8 6.8l-1.8-0.4v-26.2l1.8 0.5q0.1 4.5 0.8 6.1 0.5 1.1 1.7 1.9 1.1 0.9 4 1.3 0.8 0.1 11.1 1.2 10.3 1 28.1 3.1l-31.3-20.6q-5.1-3.3-7.2-4.2-2.1-0.8-3.5-0.8-1.3 0-2.3 1.1-1.1 1.1-1.4 3.9l-1.8-0.3v-19.3l1.8 0.5q0.2 2.5 1.3 4.5 1 2 4 4.6 1.7 1.5 9.1 6.3l50.3 32.6v1.8l-50.3-5.3 50.3 32.7z"/>
							<g id="&lt;Group&gt;">
								<path id="&lt;Compound Path&gt;" fill-rule="evenodd" class="s0" d="m32.4 477.5l-2.7-0.8v-25.3l2.7 0.8v0.3q-0.1 4.7 1.6 6.4c1.1 1.1 4 1.9 8.5 2.3l33.2 3.4-36.4-23.6q-0.9 0-1.5 0c-1.7 0-2.9 0.4-3.8 1.4q-1.3 1.5-1.6 6.5l-0.1 0.6-2.6-0.6v-27.3l2.7 0.8v0.4q0 4.4 0.7 5.9 0.5 1 1.5 1.8 1.1 0.7 3.9 1.2c0.5 0.1 4.5 0.5 11.1 1.1 6.4 0.7 15.2 1.6 26.1 2.9l-29.6-19.5c-3.4-2.2-5.8-3.6-7.2-4.1q-2-0.9-3.3-0.9-1.1 0-2 1-0.9 1-1.2 3.7l-0.1 0.5-2.6-0.6v-20.2l2.7 0.7v0.3q0.2 2.5 1.2 4.4 1 1.9 3.9 4.5c1.1 1 4.2 3.1 9.1 6.3l50.5 32.7v2.5l-48.9-5.1 48.9 31.7v2.4h-0.6l-54.1-5.6q-3.1-0.4-4.7-0.4-2.6 0-3.9 1.4-1.3 1.5-1.4 5.5zm-1.8-1.5l0.9 0.3c0.1-2.6 0.7-4.4 1.6-5.5q1.6-1.7 4.6-1.7 1.7 0 4.8 0.3l53.6 5.6v-0.9l-50-32.5 0.3-0.8 49.7 5.2v-1l-50-32.5c-5-3.2-8-5.3-9.2-6.3q-3-2.8-4.1-4.8-1.1-1.9-1.3-4.4l-0.9-0.2v18.3l0.9 0.2q0.4-2.6 1.4-3.7 1.2-1.3 2.7-1.3 1.5 0 3.7 0.9c1.4 0.6 3.8 2 7.3 4.2l31.2 20.6-0.3 0.8c-11.8-1.3-21.2-2.4-28-3.1-4.7-0.4-10.4-1-11.1-1.1-2-0.3-3.4-0.8-4.3-1.4q-1.2-0.8-1.8-2.1c-0.5-1.1-0.8-3.1-0.8-6l-0.9-0.2v25.3l0.9 0.1c0.3-3.3 0.9-5.4 1.9-6.5q1.5-1.7 4.4-1.7 0.7 0 1.7 0h0.1l38.2 24.8-0.3 0.8-35.1-3.6c-4.8-0.5-7.7-1.3-9-2.6-1.3-1.2-1.9-3.4-1.9-6.6l-0.9-0.3z"/>
							</g>
						</g>
					</g>
					<g id="&lt;Group&gt;">
						<g id="&lt;Group&gt;">
							<path id="&lt;Compound Path&gt;" class="s0" d="m856.4 438.4l-25.7-7.4v6q0 6.6 1.9 9.5 2 2.9 7.4 5v1.8l-23.6-6.7v-1.9q3 0.8 5.2 0.8 2 0 3.2-0.8 1.3-0.8 1.9-2.3 0.6-1.4 0.6-6.1v-6.2l-21.5-6.3q-3.2-0.9-4.8-0.9-1.2 0-2.2 1.2-0.6 0.9-0.6 4.1v5.7q0 9.4 3.3 15 3.3 5.6 11.4 10.1v1.8l-18-6.2v-50.2l1.8 0.6q0 3.8 0.6 5.1 0.9 1.9 2.2 2.8 2 1.2 8.3 3l39.2 11.4q4.7 1.3 7.2 1.3 1.8 0 2.8-1.2 1.1-1.3 1.1-4.9v-1.1l1.8 0.6v46.6l-15.7-4v-1.7q2.2 0.3 3.6 0.3 2.6 0 4.3-1.2 2.2-1.7 3.4-4.8 0.9-2.3 0.9-10.6z"/>
							<g id="&lt;Group&gt;">
								<path id="&lt;Compound Path&gt;" fill-rule="evenodd" class="s0" d="m860.3 469.2l-16.6-4.2v-2.7l0.5 0.1q2.2 0.4 3.6 0.4 2.5 0 4.1-1.2 2-1.6 3.1-4.6c0.6-1.4 0.9-5 0.9-10.4v-7.8l-24.8-7.2v5.4c0 4.3 0.7 7.4 1.9 9.2 1.3 1.9 3.7 3.5 7.2 4.9l0.3 0.1v2.7l-24.5-6.9v-2.9l0.6 0.2c3.6 1 6.4 1.1 8 0q1.1-0.7 1.6-2.1 0.6-1.3 0.6-5.9v-5.9l-21.1-6.1q-3.1-0.9-4.7-0.9-1 0-1.8 1c-0.2 0.3-0.6 1.1-0.6 3.8v5.7c0 6.2 1.1 11.1 3.3 14.8 2.1 3.6 5.9 7 11.2 9.9l0.3 0.1v2.7l-19-6.4v-51.2l2.7 0.9v0.3q0.1 3.7 0.7 4.9 0.8 1.8 2 2.6c1.2 0.8 4 1.8 8.1 3l39.2 11.4c3.1 0.9 5.5 1.3 7.1 1.3q1.6 0 2.5-1.1 0.9-1.1 0.9-4.6v-1.7l2.7 0.8zm-15.7-4.9l14.8 3.8v-45.8l-0.9-0.2v0.4c0 2.6-0.3 4.3-1.1 5.2q-1.2 1.4-3.2 1.4c-1.7 0-4.2-0.4-7.4-1.3l-39.1-11.4c-4.3-1.2-7.1-2.2-8.4-3.1q-1.4-1-2.4-3c-0.4-0.9-0.6-2.5-0.7-4.9l-0.8-0.3v49.2l17.1 5.8v-0.8c-5.4-3-9.2-6.4-11.4-10.1-2.3-3.8-3.4-9-3.4-15.2v-5.8c0-2.3 0.2-3.7 0.8-4.3q1.1-1.4 2.5-1.4c1.1 0 2.7 0.3 4.9 0.9l21.8 6.3v6.6c0 3.2-0.2 5.3-0.6 6.3q-0.7 1.6-2 2.5c-1.8 1.2-4.5 1.2-8.2 0.2v1l22.6 6.4v-0.9c-3.5-1.4-5.9-3.1-7.2-5-1.4-2-2.1-5.3-2.1-9.7v-6.7l26.6 7.7v8.5c0 5.7-0.3 9.2-0.9 10.8q-1.2 3.2-3.5 5-1.8 1.3-4.6 1.3-1.3 0-3.2-0.3z"/>
							</g>
						</g>
					</g>
				</g>
			</g>
		</g>
	</g>
</svg>